<svg width="450" height="46" viewBox="0 0 450 46" fill="none" xmlns="http://www.w3.org/2000/svg">
<path d="M-1.33738e-06 2.1179V0.477272H11.4545V2.1179H6.65199V15.75H4.80256V2.1179H-1.33738e-06ZM19.9404 11.0668V4.29545H21.7003V15.75H19.9404V13.8111H19.8211C19.5526 14.3928 19.135 14.8874 18.5682 15.2951C18.0015 15.6978 17.2855 15.8991 16.4205 15.8991C15.7046 15.8991 15.0682 15.7425 14.5114 15.4293C13.9546 15.1112 13.5171 14.6339 13.1989 13.9975C12.8807 13.3562 12.7216 12.5483 12.7216 11.5739V4.29545H14.4816V11.4545C14.4816 12.2898 14.7152 12.956 15.1826 13.4531C15.6549 13.9503 16.2564 14.1989 16.9873 14.1989C17.4248 14.1989 17.8697 14.087 18.3221 13.8633C18.7795 13.6396 19.1623 13.2965 19.4706 12.8342C19.7838 12.3718 19.9404 11.7827 19.9404 11.0668ZM25.1338 15.75V4.29545H26.8341V6.02557H26.9534C27.1622 5.45881 27.54 4.99893 28.0869 4.64595C28.6338 4.29297 29.2503 4.11648 29.9363 4.11648C30.0656 4.11648 30.2272 4.11896 30.4211 4.12393C30.615 4.12891 30.7616 4.13636 30.8611 4.14631V5.93608C30.8014 5.92116 30.6647 5.89879 30.4509 5.86896C30.2421 5.83416 30.0209 5.81676 29.7872 5.81676C29.2304 5.81676 28.7332 5.93359 28.2957 6.16726C27.8632 6.39595 27.5201 6.71413 27.2666 7.1218C27.018 7.5245 26.8937 7.98437 26.8937 8.50142V15.75H25.1338ZM34.9172 8.85938V15.75H33.1573V4.29545H34.8575V6.08523H35.0067C35.2752 5.50355 35.6828 5.03622 36.2297 4.68324C36.7766 4.32528 37.4825 4.14631 38.3476 4.14631C39.1232 4.14631 39.8018 4.3054 40.3835 4.62358C40.9651 4.93679 41.4176 5.41406 41.7407 6.0554C42.0639 6.69176 42.2254 7.49716 42.2254 8.47159V15.75H40.4655V8.59091C40.4655 7.69105 40.2318 6.99006 39.7645 6.48793C39.2972 5.98082 38.6558 5.72727 37.8405 5.72727C37.2787 5.72727 36.7766 5.84908 36.3341 6.09268C35.8966 6.33629 35.5511 6.69176 35.2975 7.15909C35.044 7.62642 34.9172 8.19318 34.9172 8.85938ZM56.5702 15.9886C55.4665 15.9886 54.5145 15.745 53.7141 15.2578C52.9186 14.7656 52.3046 14.0795 51.8721 13.1996C51.4445 12.3146 51.2308 11.2855 51.2308 10.1122C51.2308 8.93892 51.4445 7.90483 51.8721 7.00994C52.3046 6.11009 52.9062 5.40909 53.6768 4.90696C54.4523 4.39986 55.3572 4.14631 56.3913 4.14631C56.9879 4.14631 57.577 4.24574 58.1587 4.4446C58.7403 4.64347 59.2698 4.96662 59.7471 5.41406C60.2244 5.85653 60.6047 6.44318 60.8881 7.17401C61.1714 7.90483 61.3131 8.80469 61.3131 9.87358V10.6193H52.4836V9.09801H59.5234C59.5234 8.4517 59.3941 7.875 59.1356 7.3679C58.882 6.86079 58.5191 6.46058 58.0468 6.16726C57.5795 5.87393 57.0276 5.72727 56.3913 5.72727C55.6903 5.72727 55.0837 5.90128 54.5717 6.24929C54.0646 6.59233 53.6743 7.03977 53.4009 7.59162C53.1274 8.14347 52.9907 8.73508 52.9907 9.36648V10.3807C52.9907 11.2457 53.1398 11.979 53.4381 12.5806C53.7414 13.1772 54.1615 13.6321 54.6984 13.9453C55.2354 14.2536 55.8593 14.4077 56.5702 14.4077C57.0326 14.4077 57.4502 14.343 57.8231 14.2138C58.2009 14.0795 58.5266 13.8807 58.8 13.6172C59.0734 13.3487 59.2847 13.0156 59.4339 12.6179L61.1342 13.0952C60.9552 13.6719 60.6544 14.179 60.2318 14.6165C59.8092 15.049 59.2872 15.3871 58.6658 15.6307C58.0443 15.8693 57.3458 15.9886 56.5702 15.9886ZM73.2182 4.29545L68.9824 15.75H67.1926L62.9568 4.29545H64.8659L68.0278 13.4233H68.1472L71.3091 4.29545H73.2182ZM80.1436 15.9886C79.0399 15.9886 78.0878 15.745 77.2874 15.2578C76.4919 14.7656 75.8779 14.0795 75.4454 13.1996C75.0179 12.3146 74.8041 11.2855 74.8041 10.1122C74.8041 8.93892 75.0179 7.90483 75.4454 7.00994C75.8779 6.11009 76.4795 5.40909 77.2501 4.90696C78.0257 4.39986 78.9305 4.14631 79.9646 4.14631C80.5612 4.14631 81.1503 4.24574 81.732 4.4446C82.3137 4.64347 82.8431 4.96662 83.3204 5.41406C83.7977 5.85653 84.178 6.44318 84.4614 7.17401C84.7448 7.90483 84.8865 8.80469 84.8865 9.87358V10.6193H76.0569V9.09801H83.0967C83.0967 8.4517 82.9674 7.875 82.7089 7.3679C82.4554 6.86079 82.0924 6.46058 81.6201 6.16726C81.1528 5.87393 80.6009 5.72727 79.9646 5.72727C79.2636 5.72727 78.6571 5.90128 78.145 6.24929C77.6379 6.59233 77.2476 7.03977 76.9742 7.59162C76.7007 8.14347 76.564 8.73508 76.564 9.36648V10.3807C76.564 11.2457 76.7132 11.979 77.0115 12.5806C77.3147 13.1772 77.7348 13.6321 78.2718 13.9453C78.8087 14.2536 79.4326 14.4077 80.1436 14.4077C80.6059 14.4077 81.0235 14.343 81.3964 14.2138C81.7742 14.0795 82.0999 13.8807 82.3733 13.6172C82.6468 13.3487 82.8581 13.0156 83.0072 12.6179L84.7075 13.0952C84.5285 13.6719 84.2277 14.179 83.8051 14.6165C83.3826 15.049 82.8605 15.3871 82.2391 15.6307C81.6176 15.8693 80.9191 15.9886 80.1436 15.9886ZM87.7737 15.75V4.29545H89.4739V6.02557H89.5933C89.8021 5.45881 90.1799 4.99893 90.7268 4.64595C91.2737 4.29297 91.8901 4.11648 92.5762 4.11648C92.7055 4.11648 92.8671 4.11896 93.0609 4.12393C93.2548 4.12891 93.4015 4.13636 93.5009 4.14631V5.93608C93.4413 5.92116 93.3046 5.89879 93.0908 5.86896C92.882 5.83416 92.6607 5.81676 92.4271 5.81676C91.8703 5.81676 91.3731 5.93359 90.9356 6.16726C90.5031 6.39595 90.16 6.71413 89.9065 7.1218C89.6579 7.5245 89.5336 7.98437 89.5336 8.50142V15.75H87.7737ZM97.2793 20.0455C96.981 20.0455 96.715 20.0206 96.4814 19.9709C96.2477 19.9261 96.0861 19.8814 95.9966 19.8366L96.4441 18.2855C96.8716 18.3949 97.2495 18.4347 97.5776 18.4048C97.9057 18.375 98.1966 18.2283 98.4501 17.9648C98.7086 17.7063 98.9448 17.2862 99.1586 16.7045L99.4867 15.8097L95.2509 4.29545H97.16L100.322 13.4233H100.441L103.603 4.29545H105.512L100.65 17.4205C100.431 18.0121 100.16 18.5018 99.8372 18.8896C99.514 19.2823 99.1387 19.5732 98.7111 19.7621C98.2885 19.951 97.8113 20.0455 97.2793 20.0455ZM118.815 15.9886C117.741 15.9886 116.816 15.7351 116.041 15.228C115.265 14.7209 114.669 14.0224 114.251 13.1325C113.833 12.2425 113.625 11.2259 113.625 10.0824C113.625 8.91903 113.838 7.8924 114.266 7.00249C114.698 6.1076 115.3 5.40909 116.071 4.90696C116.846 4.39986 117.751 4.14631 118.785 4.14631C119.59 4.14631 120.316 4.29545 120.963 4.59375C121.609 4.89205 122.138 5.30966 122.551 5.84659C122.964 6.38352 123.22 7.00994 123.319 7.72585H121.559C121.425 7.20383 121.127 6.74148 120.664 6.33878C120.207 5.93111 119.59 5.72727 118.815 5.72727C118.129 5.72727 117.527 5.90625 117.01 6.2642C116.498 6.61719 116.098 7.11683 115.81 7.76314C115.526 8.40447 115.384 9.15767 115.384 10.0227C115.384 10.9077 115.524 11.6783 115.802 12.3345C116.085 12.9908 116.483 13.5004 116.995 13.8633C117.512 14.2262 118.119 14.4077 118.815 14.4077C119.272 14.4077 119.687 14.3281 120.06 14.169C120.433 14.0099 120.749 13.7812 121.007 13.483C121.266 13.1847 121.45 12.8267 121.559 12.4091H123.319C123.22 13.0852 122.974 13.6942 122.581 14.2362C122.193 14.7731 121.679 15.2006 121.037 15.5188C120.401 15.832 119.66 15.9886 118.815 15.9886ZM126.102 15.75V4.29545H127.862V15.75H126.102ZM126.997 2.38636C126.654 2.38636 126.358 2.26953 126.109 2.03587C125.866 1.8022 125.744 1.52131 125.744 1.19318C125.744 0.865057 125.866 0.584162 126.109 0.350497C126.358 0.116832 126.654 0 126.997 0C127.34 0 127.633 0.116832 127.877 0.350497C128.125 0.584162 128.25 0.865057 128.25 1.19318C128.25 1.52131 128.125 1.8022 127.877 2.03587C127.633 2.26953 127.34 2.38636 126.997 2.38636ZM136.277 4.29545V5.78693H130.341V4.29545H136.277ZM132.071 1.55114H133.831V12.4688C133.831 12.9659 133.903 13.3388 134.047 13.5874C134.196 13.831 134.385 13.995 134.614 14.0795C134.848 14.1591 135.094 14.1989 135.352 14.1989C135.546 14.1989 135.705 14.1889 135.829 14.169C135.954 14.1442 136.053 14.1243 136.128 14.1094L136.486 15.6903C136.366 15.7351 136.2 15.7798 135.986 15.8246C135.772 15.8743 135.501 15.8991 135.173 15.8991C134.676 15.8991 134.189 15.7923 133.712 15.5785C133.239 15.3647 132.846 15.0391 132.533 14.6016C132.225 14.1641 132.071 13.6122 132.071 12.946V1.55114ZM140.268 20.0455C139.969 20.0455 139.703 20.0206 139.47 19.9709C139.236 19.9261 139.075 19.8814 138.985 19.8366L139.433 18.2855C139.86 18.3949 140.238 18.4347 140.566 18.4048C140.894 18.375 141.185 18.2283 141.439 17.9648C141.697 17.7063 141.933 17.2862 142.147 16.7045L142.475 15.8097L138.239 4.29545H140.148L143.31 13.4233H143.43L146.592 4.29545H148.501L143.639 17.4205C143.42 18.0121 143.149 18.5018 142.826 18.8896C142.503 19.2823 142.127 19.5732 141.7 19.7621C141.277 19.951 140.8 20.0455 140.268 20.0455ZM157.15 15.75V4.29545H158.91V15.75H157.15ZM158.045 2.38636C157.702 2.38636 157.406 2.26953 157.157 2.03587C156.914 1.8022 156.792 1.52131 156.792 1.19318C156.792 0.865057 156.914 0.584162 157.157 0.350497C157.406 0.116832 157.702 0 158.045 0C158.388 0 158.681 0.116832 158.925 0.350497C159.173 0.584162 159.298 0.865057 159.298 1.19318C159.298 1.52131 159.173 1.8022 158.925 2.03587C158.681 2.26953 158.388 2.38636 158.045 2.38636ZM164.103 8.85938V15.75H162.343V4.29545H164.044V6.08523H164.193C164.461 5.50355 164.869 5.03622 165.416 4.68324C165.963 4.32528 166.669 4.14631 167.534 4.14631C168.309 4.14631 168.988 4.3054 169.57 4.62358C170.151 4.93679 170.604 5.41406 170.927 6.0554C171.25 6.69176 171.412 7.49716 171.412 8.47159V15.75H169.652V8.59091C169.652 7.69105 169.418 6.99006 168.951 6.48793C168.483 5.98082 167.842 5.72727 167.027 5.72727C166.465 5.72727 165.963 5.84908 165.52 6.09268C165.083 6.33629 164.737 6.69176 164.484 7.15909C164.23 7.62642 164.103 8.19318 164.103 8.85938ZM179.819 4.29545V5.78693H173.883V4.29545H179.819ZM175.613 1.55114H177.373V12.4688C177.373 12.9659 177.445 13.3388 177.589 13.5874C177.738 13.831 177.927 13.995 178.156 14.0795C178.39 14.1591 178.636 14.1989 178.894 14.1989C179.088 14.1989 179.247 14.1889 179.372 14.169C179.496 14.1442 179.595 14.1243 179.67 14.1094L180.028 15.6903C179.909 15.7351 179.742 15.7798 179.528 15.8246C179.314 15.8743 179.043 15.8991 178.715 15.8991C178.218 15.8991 177.731 15.7923 177.254 15.5785C176.781 15.3647 176.389 15.0391 176.075 14.6016C175.767 14.1641 175.613 13.6122 175.613 12.946V1.55114ZM187.207 15.9886C186.173 15.9886 185.265 15.7425 184.485 15.2504C183.709 14.7582 183.103 14.0696 182.665 13.1847C182.233 12.2997 182.016 11.2656 182.016 10.0824C182.016 8.8892 182.233 7.84766 182.665 6.95774C183.103 6.06783 183.709 5.37678 184.485 4.88459C185.265 4.3924 186.173 4.14631 187.207 4.14631C188.241 4.14631 189.146 4.3924 189.921 4.88459C190.702 5.37678 191.308 6.06783 191.741 6.95774C192.178 7.84766 192.397 8.8892 192.397 10.0824C192.397 11.2656 192.178 12.2997 191.741 13.1847C191.308 14.0696 190.702 14.7582 189.921 15.2504C189.146 15.7425 188.241 15.9886 187.207 15.9886ZM187.207 14.4077C187.992 14.4077 188.639 14.2063 189.146 13.8036C189.653 13.4009 190.028 12.8714 190.272 12.2152C190.515 11.5589 190.637 10.848 190.637 10.0824C190.637 9.31676 190.515 8.60334 190.272 7.94212C190.028 7.28089 189.653 6.74645 189.146 6.33878C188.639 5.93111 187.992 5.72727 187.207 5.72727C186.421 5.72727 185.775 5.93111 185.268 6.33878C184.761 6.74645 184.385 7.28089 184.142 7.94212C183.898 8.60334 183.776 9.31676 183.776 10.0824C183.776 10.848 183.898 11.5589 184.142 12.2152C184.385 12.8714 184.761 13.4009 185.268 13.8036C185.775 14.2063 186.421 14.4077 187.207 14.4077ZM202.543 20.0455C202.245 20.0455 201.979 20.0206 201.745 19.9709C201.512 19.9261 201.35 19.8814 201.261 19.8366L201.708 18.2855C202.136 18.3949 202.514 18.4347 202.842 18.4048C203.17 18.375 203.461 18.2283 203.714 17.9648C203.973 17.7063 204.209 17.2862 204.423 16.7045L204.751 15.8097L200.515 4.29545H202.424L205.586 13.4233H205.705L208.867 4.29545H210.776L205.914 17.4205C205.695 18.0121 205.424 18.5018 205.101 18.8896C204.778 19.2823 204.403 19.5732 203.975 19.7621C203.553 19.951 203.075 20.0455 202.543 20.0455ZM217.553 15.9886C216.519 15.9886 215.611 15.7425 214.831 15.2504C214.055 14.7582 213.449 14.0696 213.011 13.1847C212.579 12.2997 212.362 11.2656 212.362 10.0824C212.362 8.8892 212.579 7.84766 213.011 6.95774C213.449 6.06783 214.055 5.37678 214.831 4.88459C215.611 4.3924 216.519 4.14631 217.553 4.14631C218.587 4.14631 219.492 4.3924 220.267 4.88459C221.048 5.37678 221.654 6.06783 222.087 6.95774C222.524 7.84766 222.743 8.8892 222.743 10.0824C222.743 11.2656 222.524 12.2997 222.087 13.1847C221.654 14.0696 221.048 14.7582 220.267 15.2504C219.492 15.7425 218.587 15.9886 217.553 15.9886ZM217.553 14.4077C218.338 14.4077 218.984 14.2063 219.492 13.8036C219.999 13.4009 220.374 12.8714 220.618 12.2152C220.861 11.5589 220.983 10.848 220.983 10.0824C220.983 9.31676 220.861 8.60334 220.618 7.94212C220.374 7.28089 219.999 6.74645 219.492 6.33878C218.984 5.93111 218.338 5.72727 217.553 5.72727C216.767 5.72727 216.121 5.93111 215.614 6.33878C215.107 6.74645 214.731 7.28089 214.488 7.94212C214.244 8.60334 214.122 9.31676 214.122 10.0824C214.122 10.848 214.244 11.5589 214.488 12.2152C214.731 12.8714 215.107 13.4009 215.614 13.8036C216.121 14.2063 216.767 14.4077 217.553 14.4077ZM232.858 11.0668V4.29545H234.618V15.75H232.858V13.8111H232.739C232.47 14.3928 232.053 14.8874 231.486 15.2951C230.919 15.6978 230.203 15.8991 229.338 15.8991C228.622 15.8991 227.986 15.7425 227.429 15.4293C226.872 15.1112 226.435 14.6339 226.117 13.9975C225.799 13.3562 225.639 12.5483 225.639 11.5739V4.29545H227.399V11.4545C227.399 12.2898 227.633 12.956 228.1 13.4531C228.573 13.9503 229.174 14.1989 229.905 14.1989C230.343 14.1989 230.788 14.087 231.24 13.8633C231.697 13.6396 232.08 13.2965 232.388 12.8342C232.702 12.3718 232.858 11.7827 232.858 11.0668ZM238.052 15.75V4.29545H239.752V6.02557H239.871C240.08 5.45881 240.458 4.99893 241.005 4.64595C241.552 4.29297 242.168 4.11648 242.854 4.11648C242.983 4.11648 243.145 4.11896 243.339 4.12393C243.533 4.12891 243.679 4.13636 243.779 4.14631V5.93608C243.719 5.92116 243.583 5.89879 243.369 5.86896C243.16 5.83416 242.939 5.81676 242.705 5.81676C242.148 5.81676 241.651 5.93359 241.214 6.16726C240.781 6.39595 240.438 6.71413 240.184 7.1218C239.936 7.5245 239.812 7.98437 239.812 8.50142V15.75H238.052ZM255.562 16.0185C254.836 16.0185 254.178 15.8817 253.586 15.6083C252.994 15.3299 252.524 14.9297 252.176 14.4077C251.828 13.8807 251.654 13.2443 251.654 12.4986C251.654 11.8423 251.784 11.3104 252.042 10.9027C252.301 10.4901 252.646 10.1669 253.079 9.93324C253.511 9.69957 253.989 9.52557 254.511 9.41122C255.038 9.2919 255.567 9.19744 256.099 9.12784C256.795 9.03835 257.359 8.97124 257.792 8.92649C258.229 8.87678 258.548 8.79474 258.746 8.6804C258.95 8.56605 259.052 8.36719 259.052 8.08381V8.02415C259.052 7.28835 258.851 6.71662 258.448 6.30895C258.05 5.90128 257.446 5.69744 256.636 5.69744C255.796 5.69744 255.137 5.88139 254.66 6.24929C254.182 6.61719 253.847 7.00994 253.653 7.42756L251.983 6.83097C252.281 6.13494 252.679 5.59304 253.176 5.20526C253.678 4.8125 254.225 4.53906 254.816 4.38494C255.413 4.22585 256 4.14631 256.576 4.14631C256.944 4.14631 257.367 4.19105 257.844 4.28054C258.326 4.36506 258.791 4.54155 259.239 4.81001C259.691 5.07848 260.066 5.48366 260.365 6.02557C260.663 6.56747 260.812 7.29332 260.812 8.20312V15.75H259.052V14.1989H258.963C258.843 14.4474 258.644 14.7134 258.366 14.9968C258.088 15.2802 257.717 15.5213 257.255 15.7202C256.793 15.919 256.228 16.0185 255.562 16.0185ZM255.831 14.4375C256.527 14.4375 257.113 14.3008 257.591 14.0273C258.073 13.7539 258.436 13.4009 258.679 12.9684C258.928 12.5359 259.052 12.081 259.052 11.6037V9.9929C258.978 10.0824 258.814 10.1644 258.56 10.239C258.311 10.3086 258.023 10.3707 257.695 10.4254C257.372 10.4751 257.056 10.5199 256.748 10.5597C256.445 10.5945 256.198 10.6243 256.01 10.6491C255.552 10.7088 255.125 10.8058 254.727 10.94C254.334 11.0692 254.016 11.2656 253.772 11.5291C253.534 11.7876 253.414 12.1406 253.414 12.5881C253.414 13.1996 253.641 13.6619 254.093 13.9751C254.55 14.2834 255.13 14.4375 255.831 14.4375ZM268.56 15.9886C267.605 15.9886 266.762 15.7475 266.032 15.2653C265.301 14.7781 264.729 14.092 264.316 13.207C263.904 12.3171 263.697 11.2656 263.697 10.0526C263.697 8.84943 263.904 7.8054 264.316 6.92045C264.729 6.03551 265.303 5.35192 266.039 4.86967C266.775 4.38743 267.625 4.14631 268.589 4.14631C269.335 4.14631 269.924 4.2706 270.357 4.51918C270.794 4.76278 271.127 5.04119 271.356 5.3544C271.59 5.66264 271.771 5.91619 271.901 6.11506H272.05V0.477272H273.81V15.75H272.109V13.9901H271.901C271.771 14.1989 271.587 14.4624 271.349 14.7805C271.11 15.0937 270.77 15.3746 270.327 15.6232C269.885 15.8668 269.295 15.9886 268.56 15.9886ZM268.798 14.4077C269.504 14.4077 270.101 14.2237 270.588 13.8558C271.075 13.483 271.446 12.9684 271.699 12.3121C271.953 11.6509 272.08 10.8878 272.08 10.0227C272.08 9.16761 271.955 8.41939 271.707 7.77805C271.458 7.13175 271.09 6.62962 270.603 6.27166C270.116 5.90874 269.514 5.72727 268.798 5.72727C268.053 5.72727 267.431 5.91868 266.934 6.30149C266.442 6.67933 266.071 7.19389 265.823 7.84517C265.579 8.49148 265.457 9.21733 265.457 10.0227C265.457 10.8381 265.582 11.5788 265.83 12.245C266.084 12.9062 266.457 13.4332 266.949 13.826C267.446 14.2138 268.063 14.4077 268.798 14.4077ZM286.854 4.29545L282.618 15.75H280.828L276.592 4.29545H278.502L281.663 13.4233H281.783L284.945 4.29545H286.854ZM293.779 15.9886C292.675 15.9886 291.723 15.745 290.923 15.2578C290.128 14.7656 289.514 14.0795 289.081 13.1996C288.653 12.3146 288.44 11.2855 288.44 10.1122C288.44 8.93892 288.653 7.90483 289.081 7.00994C289.514 6.11009 290.115 5.40909 290.886 4.90696C291.661 4.39986 292.566 4.14631 293.6 4.14631C294.197 4.14631 294.786 4.24574 295.368 4.4446C295.949 4.64347 296.479 4.96662 296.956 5.41406C297.433 5.85653 297.814 6.44318 298.097 7.17401C298.38 7.90483 298.522 8.80469 298.522 9.87358V10.6193H289.693V9.09801H296.732C296.732 8.4517 296.603 7.875 296.345 7.3679C296.091 6.86079 295.728 6.46058 295.256 6.16726C294.788 5.87393 294.237 5.72727 293.6 5.72727C292.899 5.72727 292.293 5.90128 291.781 6.24929C291.274 6.59233 290.883 7.03977 290.61 7.59162C290.336 8.14347 290.2 8.73508 290.2 9.36648V10.3807C290.2 11.2457 290.349 11.979 290.647 12.5806C290.95 13.1772 291.37 13.6321 291.907 13.9453C292.444 14.2536 293.068 14.4077 293.779 14.4077C294.242 14.4077 294.659 14.343 295.032 14.2138C295.41 14.0795 295.736 13.8807 296.009 13.6172C296.282 13.3487 296.494 13.0156 296.643 12.6179L298.343 13.0952C298.164 13.6719 297.863 14.179 297.441 14.6165C297.018 15.049 296.496 15.3871 295.875 15.6307C295.253 15.8693 294.555 15.9886 293.779 15.9886ZM303.169 8.85938V15.75H301.409V4.29545H303.11V6.08523H303.259C303.527 5.50355 303.935 5.03622 304.482 4.68324C305.029 4.32528 305.735 4.14631 306.6 4.14631C307.375 4.14631 308.054 4.3054 308.635 4.62358C309.217 4.93679 309.67 5.41406 309.993 6.0554C310.316 6.69176 310.477 7.49716 310.477 8.47159V15.75H308.718V8.59091C308.718 7.69105 308.484 6.99006 308.017 6.48793C307.549 5.98082 306.908 5.72727 306.093 5.72727C305.531 5.72727 305.029 5.84908 304.586 6.09268C304.149 6.33629 303.803 6.69176 303.55 7.15909C303.296 7.62642 303.169 8.19318 303.169 8.85938ZM318.885 4.29545V5.78693H312.949V4.29545H318.885ZM314.679 1.55114H316.439V12.4688C316.439 12.9659 316.511 13.3388 316.655 13.5874C316.804 13.831 316.993 13.995 317.222 14.0795C317.456 14.1591 317.702 14.1989 317.96 14.1989C318.154 14.1989 318.313 14.1889 318.438 14.169C318.562 14.1442 318.661 14.1243 318.736 14.1094L319.094 15.6903C318.974 15.7351 318.808 15.7798 318.594 15.8246C318.38 15.8743 318.109 15.8991 317.781 15.8991C317.284 15.8991 316.797 15.7923 316.32 15.5785C315.847 15.3647 315.455 15.0391 315.141 14.6016C314.833 14.1641 314.679 13.6122 314.679 12.946V1.55114ZM328.961 11.0668V4.29545H330.721V15.75H328.961V13.8111H328.842C328.573 14.3928 328.156 14.8874 327.589 15.2951C327.022 15.6978 326.306 15.8991 325.441 15.8991C324.725 15.8991 324.089 15.7425 323.532 15.4293C322.975 15.1112 322.538 14.6339 322.22 13.9975C321.901 13.3562 321.742 12.5483 321.742 11.5739V4.29545H323.502V11.4545C323.502 12.2898 323.736 12.956 324.203 13.4531C324.676 13.9503 325.277 14.1989 326.008 14.1989C326.445 14.1989 326.89 14.087 327.343 13.8633C327.8 13.6396 328.183 13.2965 328.491 12.8342C328.805 12.3718 328.961 11.7827 328.961 11.0668ZM334.155 15.75V4.29545H335.855V6.02557H335.974C336.183 5.45881 336.561 4.99893 337.108 4.64595C337.655 4.29297 338.271 4.11648 338.957 4.11648C339.086 4.11648 339.248 4.11896 339.442 4.12393C339.636 4.12891 339.782 4.13636 339.882 4.14631V5.93608C339.822 5.92116 339.685 5.89879 339.472 5.86896C339.263 5.83416 339.042 5.81676 338.808 5.81676C338.251 5.81676 337.754 5.93359 337.316 6.16726C336.884 6.39595 336.541 6.71413 336.287 7.1218C336.039 7.5245 335.914 7.98437 335.914 8.50142V15.75H334.155ZM346.632 15.9886C345.528 15.9886 344.576 15.745 343.776 15.2578C342.98 14.7656 342.366 14.0795 341.934 13.1996C341.506 12.3146 341.292 11.2855 341.292 10.1122C341.292 8.93892 341.506 7.90483 341.934 7.00994C342.366 6.11009 342.968 5.40909 343.738 4.90696C344.514 4.39986 345.419 4.14631 346.453 4.14631C347.05 4.14631 347.639 4.24574 348.22 4.4446C348.802 4.64347 349.332 4.96662 349.809 5.41406C350.286 5.85653 350.666 6.44318 350.95 7.17401C351.233 7.90483 351.375 8.80469 351.375 9.87358V10.6193H342.545V9.09801H349.585C349.585 8.4517 349.456 7.875 349.197 7.3679C348.944 6.86079 348.581 6.46058 348.108 6.16726C347.641 5.87393 347.089 5.72727 346.453 5.72727C345.752 5.72727 345.145 5.90128 344.633 6.24929C344.126 6.59233 343.736 7.03977 343.463 7.59162C343.189 8.14347 343.052 8.73508 343.052 9.36648V10.3807C343.052 11.2457 343.202 11.979 343.5 12.5806C343.803 13.1772 344.223 13.6321 344.76 13.9453C345.297 14.2536 345.921 14.4077 346.632 14.4077C347.094 14.4077 347.512 14.343 347.885 14.2138C348.263 14.0795 348.588 13.8807 348.862 13.6172C349.135 13.3487 349.346 13.0156 349.496 12.6179L351.196 13.0952C351.017 13.6719 350.716 14.179 350.294 14.6165C349.871 15.049 349.349 15.3871 348.727 15.6307C348.106 15.8693 347.408 15.9886 346.632 15.9886ZM360.378 15.75V4.29545H362.079V6.08523H362.228C362.466 5.47372 362.852 4.99893 363.384 4.66087C363.916 4.31783 364.554 4.14631 365.3 4.14631C366.056 4.14631 366.685 4.31783 367.187 4.66087C367.694 4.99893 368.089 5.47372 368.373 6.08523H368.492C368.785 5.49361 369.225 5.02379 369.812 4.67578C370.399 4.3228 371.102 4.14631 371.922 4.14631C372.946 4.14631 373.784 4.46697 374.435 5.10831C375.087 5.74467 375.412 6.73651 375.412 8.08381V15.75H373.652V8.08381C373.652 7.23864 373.421 6.63459 372.959 6.27166C372.497 5.90874 371.952 5.72727 371.326 5.72727C370.52 5.72727 369.896 5.97088 369.454 6.4581C369.011 6.94034 368.79 7.55185 368.79 8.29261V15.75H367V7.90483C367 7.25355 366.789 6.72905 366.367 6.33132C365.944 5.92862 365.4 5.72727 364.733 5.72727C364.276 5.72727 363.848 5.84908 363.451 6.09268C363.058 6.33629 362.74 6.67436 362.496 7.10689C362.258 7.53445 362.138 8.02912 362.138 8.59091V15.75H360.378ZM382.211 16.0185C381.485 16.0185 380.826 15.8817 380.235 15.6083C379.643 15.3299 379.173 14.9297 378.825 14.4077C378.477 13.8807 378.303 13.2443 378.303 12.4986C378.303 11.8423 378.433 11.3104 378.691 10.9027C378.95 10.4901 379.295 10.1669 379.728 9.93324C380.16 9.69957 380.637 9.52557 381.159 9.41122C381.686 9.2919 382.216 9.19744 382.748 9.12784C383.444 9.03835 384.008 8.97124 384.441 8.92649C384.878 8.87678 385.196 8.79474 385.395 8.6804C385.599 8.56605 385.701 8.36719 385.701 8.08381V8.02415C385.701 7.28835 385.5 6.71662 385.097 6.30895C384.699 5.90128 384.095 5.69744 383.285 5.69744C382.445 5.69744 381.786 5.88139 381.309 6.24929C380.831 6.61719 380.496 7.00994 380.302 7.42756L378.631 6.83097C378.93 6.13494 379.327 5.59304 379.825 5.20526C380.327 4.8125 380.874 4.53906 381.465 4.38494C382.062 4.22585 382.648 4.14631 383.225 4.14631C383.593 4.14631 384.016 4.19105 384.493 4.28054C384.975 4.36506 385.44 4.54155 385.887 4.81001C386.34 5.07848 386.715 5.48366 387.014 6.02557C387.312 6.56747 387.461 7.29332 387.461 8.20312V15.75H385.701V14.1989H385.612C385.492 14.4474 385.293 14.7134 385.015 14.9968C384.737 15.2802 384.366 15.5213 383.904 15.7202C383.441 15.919 382.877 16.0185 382.211 16.0185ZM382.479 14.4375C383.175 14.4375 383.762 14.3008 384.239 14.0273C384.722 13.7539 385.085 13.4009 385.328 12.9684C385.577 12.5359 385.701 12.081 385.701 11.6037V9.9929C385.626 10.0824 385.462 10.1644 385.209 10.239C384.96 10.3086 384.672 10.3707 384.344 10.4254C384.021 10.4751 383.705 10.5199 383.397 10.5597C383.093 10.5945 382.847 10.6243 382.658 10.6491C382.201 10.7088 381.773 10.8058 381.376 10.94C380.983 11.0692 380.665 11.2656 380.421 11.5291C380.183 11.7876 380.063 12.1406 380.063 12.5881C380.063 13.1996 380.289 13.6619 380.742 13.9751C381.199 14.2834 381.778 14.4375 382.479 14.4375ZM390.883 20.0455V4.29545H392.584V6.11506H392.792C392.922 5.91619 393.101 5.66264 393.329 5.3544C393.563 5.04119 393.896 4.76278 394.329 4.51918C394.766 4.2706 395.358 4.14631 396.103 4.14631C397.068 4.14631 397.918 4.38743 398.654 4.86967C399.39 5.35192 399.964 6.03551 400.376 6.92045C400.789 7.8054 400.995 8.84943 400.995 10.0526C400.995 11.2656 400.789 12.3171 400.376 13.207C399.964 14.092 399.392 14.7781 398.661 15.2653C397.93 15.7475 397.088 15.9886 396.133 15.9886C395.397 15.9886 394.808 15.8668 394.366 15.6232C393.923 15.3746 393.583 15.0937 393.344 14.7805C393.106 14.4624 392.922 14.1989 392.792 13.9901H392.643V20.0455H390.883ZM392.613 10.0227C392.613 10.8878 392.74 11.6509 392.994 12.3121C393.247 12.9684 393.618 13.483 394.105 13.8558C394.592 14.2237 395.189 14.4077 395.895 14.4077C396.63 14.4077 397.244 14.2138 397.737 13.826C398.234 13.4332 398.607 12.9062 398.855 12.245C399.109 11.5788 399.236 10.8381 399.236 10.0227C399.236 9.21733 399.111 8.49148 398.863 7.84517C398.619 7.19389 398.249 6.67933 397.751 6.30149C397.259 5.91868 396.64 5.72727 395.895 5.72727C395.179 5.72727 394.577 5.90874 394.09 6.27166C393.603 6.62962 393.235 7.13175 392.986 7.77805C392.738 8.41939 392.613 9.16761 392.613 10.0227ZM412.602 15.75L409.111 4.29545H410.961L413.437 13.0653H413.556L416.002 4.29545H417.881L420.298 13.0355H420.417L422.893 4.29545H424.742L421.252 15.75H419.522L417.016 6.95028H416.837L414.332 15.75H412.602ZM427.279 15.75V4.29545H429.039V15.75H427.279ZM428.174 2.38636C427.831 2.38636 427.535 2.26953 427.286 2.03587C427.043 1.8022 426.921 1.52131 426.921 1.19318C426.921 0.865057 427.043 0.584162 427.286 0.350497C427.535 0.116832 427.831 0 428.174 0C428.517 0 428.81 0.116832 429.054 0.350497C429.302 0.584162 429.427 0.865057 429.427 1.19318C429.427 1.52131 429.302 1.8022 429.054 2.03587C428.81 2.26953 428.517 2.38636 428.174 2.38636ZM437.454 4.29545V5.78693H431.518V4.29545H437.454ZM433.248 1.55114H435.008V12.4688C435.008 12.9659 435.08 13.3388 435.224 13.5874C435.373 13.831 435.562 13.995 435.791 14.0795C436.024 14.1591 436.271 14.1989 436.529 14.1989C436.723 14.1989 436.882 14.1889 437.006 14.169C437.131 14.1442 437.23 14.1243 437.305 14.1094L437.663 15.6903C437.543 15.7351 437.377 15.7798 437.163 15.8246C436.949 15.8743 436.678 15.8991 436.35 15.8991C435.853 15.8991 435.366 15.7923 434.888 15.5785C434.416 15.3647 434.023 15.0391 433.71 14.6016C433.402 14.1641 433.248 13.6122 433.248 12.946V1.55114ZM442.317 8.85938V15.75H440.557V0.477272H442.317V6.08523H442.466C442.735 5.49361 443.138 5.02379 443.674 4.67578C444.216 4.3228 444.937 4.14631 445.837 4.14631C446.618 4.14631 447.301 4.30291 447.888 4.61612C448.475 4.92436 448.929 5.39915 449.253 6.04048C449.581 6.67685 449.745 7.48722 449.745 8.47159V15.75H447.985V8.59091C447.985 7.68111 447.749 6.97763 447.276 6.48047C446.809 5.97834 446.16 5.72727 445.33 5.72727C444.753 5.72727 444.236 5.84908 443.779 6.09268C443.326 6.33629 442.968 6.69176 442.705 7.15909C442.446 7.62642 442.317 8.19318 442.317 8.85938ZM8.71023 31.8608L7.12926 32.3082C7.02983 32.0447 6.88317 31.7887 6.68927 31.5401C6.50035 31.2866 6.24183 31.0778 5.91371 30.9137C5.58558 30.7496 5.16548 30.6676 4.65341 30.6676C3.95241 30.6676 3.36825 30.8292 2.90092 31.1523C2.43856 31.4705 2.20739 31.8757 2.20739 32.3679C2.20739 32.8054 2.36648 33.1509 2.68466 33.4045C3.00284 33.658 3.5 33.8693 4.17614 34.0384L5.87642 34.456C6.90057 34.7045 7.66371 35.0849 8.16584 35.5969C8.66797 36.104 8.91903 36.7578 8.91903 37.5582C8.91903 38.2145 8.73011 38.8011 8.35227 39.3182C7.9794 39.8352 7.45739 40.2429 6.78622 40.5412C6.11506 40.8395 5.33452 40.9886 4.4446 40.9886C3.27628 40.9886 2.3093 40.7351 1.54368 40.228C0.778053 39.7209 0.293322 38.9801 0.0894873 38.0057L1.75994 37.5881C1.91903 38.2045 2.21981 38.6669 2.66229 38.9751C3.10973 39.2834 3.69389 39.4375 4.41477 39.4375C5.23508 39.4375 5.88636 39.2635 6.36861 38.9155C6.85582 38.5625 7.09943 38.1399 7.09943 37.6477C7.09943 37.25 6.96023 36.9169 6.68182 36.6484C6.40341 36.375 5.97585 36.1712 5.39915 36.0369L3.49006 35.5895C2.44105 35.3409 1.67045 34.9556 1.17827 34.4336C0.69105 33.9066 0.447442 33.2479 0.447442 32.4574C0.447442 31.8111 0.628905 31.2393 0.991831 30.7422C1.35973 30.245 1.85937 29.8548 2.49077 29.5714C3.12713 29.288 3.84801 29.1463 4.65341 29.1463C5.78693 29.1463 6.67685 29.3949 7.32315 29.892C7.97443 30.3892 8.43679 31.0455 8.71023 31.8608ZM16.7598 29.2955V30.7869H10.8237V29.2955H16.7598ZM12.5538 26.5511H14.3138V37.4688C14.3138 37.9659 14.3859 38.3388 14.53 38.5874C14.6792 38.831 14.8681 38.995 15.0968 39.0795C15.3305 39.1591 15.5766 39.1989 15.8351 39.1989C16.029 39.1989 16.1881 39.1889 16.3124 39.169C16.4367 39.1442 16.5361 39.1243 16.6107 39.1094L16.9686 40.6903C16.8493 40.7351 16.6827 40.7798 16.469 40.8246C16.2552 40.8743 15.9842 40.8991 15.6561 40.8991C15.159 40.8991 14.6717 40.7923 14.1945 40.5785C13.7222 40.3647 13.3294 40.0391 13.0162 39.6016C12.708 39.1641 12.5538 38.6122 12.5538 37.946V26.5511ZM24.1475 40.9886C23.1134 40.9886 22.2061 40.7425 21.4256 40.2504C20.65 39.7582 20.0435 39.0696 19.606 38.1847C19.1735 37.2997 18.9572 36.2656 18.9572 35.0824C18.9572 33.8892 19.1735 32.8477 19.606 31.9577C20.0435 31.0678 20.65 30.3768 21.4256 29.8846C22.2061 29.3924 23.1134 29.1463 24.1475 29.1463C25.1816 29.1463 26.0865 29.3924 26.862 29.8846C27.6426 30.3768 28.2491 31.0678 28.6816 31.9577C29.1191 32.8477 29.3379 33.8892 29.3379 35.0824C29.3379 36.2656 29.1191 37.2997 28.6816 38.1847C28.2491 39.0696 27.6426 39.7582 26.862 40.2504C26.0865 40.7425 25.1816 40.9886 24.1475 40.9886ZM24.1475 39.4077C24.933 39.4077 25.5794 39.2063 26.0865 38.8036C26.5936 38.4009 26.9689 37.8714 27.2125 37.2152C27.4561 36.5589 27.5779 35.848 27.5779 35.0824C27.5779 34.3168 27.4561 33.6033 27.2125 32.9421C26.9689 32.2809 26.5936 31.7464 26.0865 31.3388C25.5794 30.9311 24.933 30.7273 24.1475 30.7273C23.362 30.7273 22.7157 30.9311 22.2086 31.3388C21.7015 31.7464 21.3262 32.2809 21.0826 32.9421C20.8389 33.6033 20.7171 34.3168 20.7171 35.0824C20.7171 35.848 20.8389 36.5589 21.0826 37.2152C21.3262 37.8714 21.7015 38.4009 22.2086 38.8036C22.7157 39.2063 23.362 39.4077 24.1475 39.4077ZM32.2344 40.75V29.2955H33.9347V31.0256H34.054C34.2628 30.4588 34.6407 29.9989 35.1875 29.646C35.7344 29.293 36.3509 29.1165 37.037 29.1165C37.1662 29.1165 37.3278 29.119 37.5217 29.1239C37.7156 29.1289 37.8622 29.1364 37.9617 29.1463V30.9361C37.902 30.9212 37.7653 30.8988 37.5515 30.869C37.3427 30.8342 37.1215 30.8168 36.8878 30.8168C36.331 30.8168 35.8338 30.9336 35.3963 31.1673C34.9638 31.396 34.6208 31.7141 34.3672 32.1218C34.1186 32.5245 33.9943 32.9844 33.9943 33.5014V40.75H32.2344ZM41.74 45.0455C41.4417 45.0455 41.1758 45.0206 40.9421 44.9709C40.7084 44.9261 40.5469 44.8814 40.4574 44.8366L40.9048 43.2855C41.3324 43.3949 41.7102 43.4347 42.0383 43.4048C42.3665 43.375 42.6573 43.2283 42.9108 42.9648C43.1694 42.7063 43.4055 42.2862 43.6193 41.7045L43.9474 40.8097L39.7116 29.2955H41.6207L44.7826 38.4233H44.902L48.0639 29.2955H49.973L45.1108 42.4205C44.892 43.0121 44.6211 43.5018 44.2979 43.8896C43.9748 44.2823 43.5994 44.5732 43.1719 44.7621C42.7493 44.951 42.272 45.0455 41.74 45.0455ZM59.0685 33.3821V35.0227H52.3866V33.3821H59.0685ZM66.7004 40.9886C65.7459 40.9886 64.9032 40.7475 64.1724 40.2653C63.4415 39.7781 62.8698 39.092 62.4572 38.207C62.0445 37.3171 61.8382 36.2656 61.8382 35.0526C61.8382 33.8494 62.0445 32.8054 62.4572 31.9205C62.8698 31.0355 63.444 30.3519 64.1798 29.8697C64.9156 29.3874 65.7658 29.1463 66.7303 29.1463C67.476 29.1463 68.0651 29.2706 68.4977 29.5192C68.9352 29.7628 69.2683 30.0412 69.4969 30.3544C69.7306 30.6626 69.9121 30.9162 70.0413 31.1151H70.1905V25.4773H71.9504V40.75H70.2501V38.9901H70.0413C69.9121 39.1989 69.7281 39.4624 69.4895 39.7805C69.2509 40.0937 68.9103 40.3746 68.4678 40.6232C68.0254 40.8668 67.4362 40.9886 66.7004 40.9886ZM66.9391 39.4077C67.645 39.4077 68.2416 39.2237 68.7288 38.8558C69.2161 38.483 69.5864 37.9684 69.84 37.3121C70.0935 36.6509 70.2203 35.8878 70.2203 35.0227C70.2203 34.1676 70.096 33.4194 69.8474 32.7781C69.5989 32.1317 69.231 31.6296 68.7438 31.2717C68.2565 30.9087 67.655 30.7273 66.9391 30.7273C66.1933 30.7273 65.5719 30.9187 65.0747 31.3015C64.5825 31.6793 64.2121 32.1939 63.9636 32.8452C63.72 33.4915 63.5982 34.2173 63.5982 35.0227C63.5982 35.8381 63.7224 36.5788 63.971 37.245C64.2246 37.9062 64.5974 38.4332 65.0896 38.826C65.5868 39.2138 66.2033 39.4077 66.9391 39.4077ZM75.6281 40.75V29.2955H77.3284V31.0256H77.4477C77.6565 30.4588 78.0344 29.9989 78.5812 29.646C79.1281 29.293 79.7446 29.1165 80.4307 29.1165C80.5599 29.1165 80.7215 29.119 80.9154 29.1239C81.1093 29.1289 81.256 29.1364 81.3554 29.1463V30.9361C81.2957 30.9212 81.159 30.8988 80.9452 30.869C80.7364 30.8342 80.5152 30.8168 80.2815 30.8168C79.7247 30.8168 79.2275 30.9336 78.79 31.1673C78.3575 31.396 78.0145 31.7141 77.7609 32.1218C77.5123 32.5245 77.3881 32.9844 77.3881 33.5014V40.75H75.6281ZM83.6516 40.75V29.2955H85.4115V40.75H83.6516ZM84.5465 27.3864C84.2034 27.3864 83.9076 27.2695 83.659 27.0359C83.4154 26.8022 83.2936 26.5213 83.2936 26.1932C83.2936 25.8651 83.4154 25.5842 83.659 25.3505C83.9076 25.1168 84.2034 25 84.5465 25C84.8895 25 85.1828 25.1168 85.4264 25.3505C85.675 25.5842 85.7993 25.8651 85.7993 26.1932C85.7993 26.5213 85.675 26.8022 85.4264 27.0359C85.1828 27.2695 84.8895 27.3864 84.5465 27.3864ZM98.2115 29.2955L93.9757 40.75H92.1859L87.9501 29.2955H89.8592L93.0211 38.4233H93.1404L96.3024 29.2955H98.2115ZM105.137 40.9886C104.033 40.9886 103.081 40.745 102.281 40.2578C101.485 39.7656 100.871 39.0795 100.439 38.1996C100.011 37.3146 99.7974 36.2855 99.7974 35.1122C99.7974 33.9389 100.011 32.9048 100.439 32.0099C100.871 31.1101 101.473 30.4091 102.243 29.907C103.019 29.3999 103.924 29.1463 104.958 29.1463C105.554 29.1463 106.144 29.2457 106.725 29.4446C107.307 29.6435 107.836 29.9666 108.314 30.4141C108.791 30.8565 109.171 31.4432 109.455 32.174C109.738 32.9048 109.88 33.8047 109.88 34.8736V35.6193H101.05V34.098H108.09C108.09 33.4517 107.961 32.875 107.702 32.3679C107.449 31.8608 107.086 31.4606 106.613 31.1673C106.146 30.8739 105.594 30.7273 104.958 30.7273C104.257 30.7273 103.65 30.9013 103.138 31.2493C102.631 31.5923 102.241 32.0398 101.967 32.5916C101.694 33.1435 101.557 33.7351 101.557 34.3665V35.3807C101.557 36.2457 101.706 36.979 102.005 37.5806C102.308 38.1772 102.728 38.6321 103.265 38.9453C103.802 39.2536 104.426 39.4077 105.137 39.4077C105.599 39.4077 106.017 39.343 106.39 39.2138C106.768 39.0795 107.093 38.8807 107.367 38.6172C107.64 38.3487 107.851 38.0156 108 37.6179L109.701 38.0952C109.522 38.6719 109.221 39.179 108.798 39.6165C108.376 40.049 107.854 40.3871 107.232 40.6307C106.611 40.8693 105.912 40.9886 105.137 40.9886ZM114.527 33.8594V40.75H112.767V29.2955H114.467V31.0852H114.616C114.885 30.5036 115.293 30.0362 115.839 29.6832C116.386 29.3253 117.092 29.1463 117.957 29.1463C118.733 29.1463 119.411 29.3054 119.993 29.6236C120.575 29.9368 121.027 30.4141 121.35 31.0554C121.674 31.6918 121.835 32.4972 121.835 33.4716V40.75H120.075V33.5909C120.075 32.6911 119.842 31.9901 119.374 31.4879C118.907 30.9808 118.266 30.7273 117.45 30.7273C116.888 30.7273 116.386 30.8491 115.944 31.0927C115.506 31.3363 115.161 31.6918 114.907 32.1591C114.654 32.6264 114.527 33.1932 114.527 33.8594ZM139.193 45.0455V38.9901H139.044C138.914 39.1989 138.73 39.4624 138.492 39.7805C138.253 40.0937 137.913 40.3746 137.47 40.6232C137.028 40.8668 136.438 40.9886 135.703 40.9886C134.748 40.9886 133.905 40.7475 133.175 40.2653C132.444 39.7781 131.872 39.092 131.459 38.207C131.047 37.3171 130.84 36.2656 130.84 35.0526C130.84 33.8494 131.047 32.8054 131.459 31.9205C131.872 31.0355 132.446 30.3519 133.182 29.8697C133.918 29.3874 134.768 29.1463 135.732 29.1463C136.478 29.1463 137.067 29.2706 137.5 29.5192C137.937 29.7628 138.27 30.0412 138.499 30.3544C138.733 30.6626 138.914 30.9162 139.044 31.1151H139.252V29.2955H140.953V45.0455H139.193ZM135.941 39.4077C136.647 39.4077 137.244 39.2237 137.731 38.8558C138.218 38.483 138.589 37.9684 138.842 37.3121C139.096 36.6509 139.223 35.8878 139.223 35.0227C139.223 34.1676 139.098 33.4194 138.85 32.7781C138.601 32.1317 138.233 31.6296 137.746 31.2717C137.259 30.9087 136.657 30.7273 135.941 30.7273C135.196 30.7273 134.574 30.9187 134.077 31.3015C133.585 31.6793 133.214 32.1939 132.966 32.8452C132.722 33.4915 132.6 34.2173 132.6 35.0227C132.6 35.8381 132.725 36.5788 132.973 37.245C133.227 37.9062 133.6 38.4332 134.092 38.826C134.589 39.2138 135.205 39.4077 135.941 39.4077ZM151.603 36.0668V29.2955H153.363V40.75H151.603V38.8111H151.484C151.215 39.3928 150.798 39.8874 150.231 40.2951C149.664 40.6978 148.948 40.8991 148.083 40.8991C147.367 40.8991 146.731 40.7425 146.174 40.4293C145.617 40.1112 145.18 39.6339 144.862 38.9975C144.543 38.3562 144.384 37.5483 144.384 36.5739V29.2955H146.144V36.4545C146.144 37.2898 146.378 37.956 146.845 38.4531C147.317 38.9503 147.919 39.1989 148.65 39.1989C149.087 39.1989 149.532 39.087 149.985 38.8633C150.442 38.6396 150.825 38.2965 151.133 37.8342C151.446 37.3718 151.603 36.7827 151.603 36.0668ZM161.599 40.9886C160.495 40.9886 159.543 40.745 158.743 40.2578C157.947 39.7656 157.333 39.0795 156.901 38.1996C156.473 37.3146 156.259 36.2855 156.259 35.1122C156.259 33.9389 156.473 32.9048 156.901 32.0099C157.333 31.1101 157.935 30.4091 158.705 29.907C159.481 29.3999 160.386 29.1463 161.42 29.1463C162.017 29.1463 162.606 29.2457 163.187 29.4446C163.769 29.6435 164.299 29.9666 164.776 30.4141C165.253 30.8565 165.633 31.4432 165.917 32.174C166.2 32.9048 166.342 33.8047 166.342 34.8736V35.6193H157.512V34.098H164.552C164.552 33.4517 164.423 32.875 164.164 32.3679C163.911 31.8608 163.548 31.4606 163.076 31.1673C162.608 30.8739 162.056 30.7273 161.42 30.7273C160.719 30.7273 160.112 30.9013 159.6 31.2493C159.093 31.5923 158.703 32.0398 158.43 32.5916C158.156 33.1435 158.019 33.7351 158.019 34.3665V35.3807C158.019 36.2457 158.169 36.979 158.467 37.5806C158.77 38.1772 159.19 38.6321 159.727 38.9453C160.264 39.2536 160.888 39.4077 161.599 39.4077C162.061 39.4077 162.479 39.343 162.852 39.2138C163.23 39.0795 163.555 38.8807 163.829 38.6172C164.102 38.3487 164.313 38.0156 164.463 37.6179L166.163 38.0952C165.984 38.6719 165.683 39.179 165.261 39.6165C164.838 40.049 164.316 40.3871 163.694 40.6307C163.073 40.8693 162.375 40.9886 161.599 40.9886ZM177.343 31.8608L175.762 32.3082C175.662 32.0447 175.516 31.7887 175.322 31.5401C175.133 31.2866 174.874 31.0778 174.546 30.9137C174.218 30.7496 173.798 30.6676 173.286 30.6676C172.585 30.6676 172.001 30.8292 171.533 31.1523C171.071 31.4705 170.84 31.8757 170.84 32.3679C170.84 32.8054 170.999 33.1509 171.317 33.4045C171.635 33.658 172.132 33.8693 172.809 34.0384L174.509 34.456C175.533 34.7045 176.296 35.0849 176.798 35.5969C177.3 36.104 177.551 36.7578 177.551 37.5582C177.551 38.2145 177.363 38.8011 176.985 39.3182C176.612 39.8352 176.09 40.2429 175.419 40.5412C174.748 40.8395 173.967 40.9886 173.077 40.9886C171.909 40.9886 170.942 40.7351 170.176 40.228C169.411 39.7209 168.926 38.9801 168.722 38.0057L170.392 37.5881C170.551 38.2045 170.852 38.6669 171.295 38.9751C171.742 39.2834 172.326 39.4375 173.047 39.4375C173.868 39.4375 174.519 39.2635 175.001 38.9155C175.488 38.5625 175.732 38.1399 175.732 37.6477C175.732 37.25 175.593 36.9169 175.314 36.6484C175.036 36.375 174.608 36.1712 174.032 36.0369L172.123 35.5895C171.074 35.3409 170.303 34.9556 169.811 34.4336C169.324 33.9066 169.08 33.2479 169.08 32.4574C169.08 31.8111 169.261 31.2393 169.624 30.7422C169.992 30.245 170.492 29.8548 171.123 29.5714C171.76 29.288 172.48 29.1463 173.286 29.1463C174.419 29.1463 175.309 29.3949 175.956 29.892C176.607 30.3892 177.069 31.0455 177.343 31.8608ZM185.392 29.2955V30.7869H179.456V29.2955H185.392ZM181.186 26.5511H182.946V37.4688C182.946 37.9659 183.018 38.3388 183.163 38.5874C183.312 38.831 183.501 38.995 183.729 39.0795C183.963 39.1591 184.209 39.1989 184.468 39.1989C184.661 39.1989 184.821 39.1889 184.945 39.169C185.069 39.1442 185.169 39.1243 185.243 39.1094L185.601 40.6903C185.482 40.7351 185.315 40.7798 185.101 40.8246C184.888 40.8743 184.617 40.8991 184.289 40.8991C183.791 40.8991 183.304 40.7923 182.827 40.5785C182.355 40.3647 181.962 40.0391 181.649 39.6016C181.34 39.1641 181.186 38.6122 181.186 37.946V26.5511ZM196.158 31.8608L194.577 32.3082C194.478 32.0447 194.331 31.7887 194.137 31.5401C193.948 31.2866 193.69 31.0778 193.362 30.9137C193.034 30.7496 192.613 30.6676 192.101 30.6676C191.4 30.6676 190.816 30.8292 190.349 31.1523C189.887 31.4705 189.655 31.8757 189.655 32.3679C189.655 32.8054 189.814 33.1509 190.133 33.4045C190.451 33.658 190.948 33.8693 191.624 34.0384L193.324 34.456C194.349 34.7045 195.112 35.0849 195.614 35.5969C196.116 36.104 196.367 36.7578 196.367 37.5582C196.367 38.2145 196.178 38.8011 195.8 39.3182C195.427 39.8352 194.905 40.2429 194.234 40.5412C193.563 40.8395 192.782 40.9886 191.893 40.9886C190.724 40.9886 189.757 40.7351 188.992 40.228C188.226 39.7209 187.741 38.9801 187.537 38.0057L189.208 37.5881C189.367 38.2045 189.668 38.6669 190.11 38.9751C190.558 39.2834 191.142 39.4375 191.863 39.4375C192.683 39.4375 193.334 39.2635 193.817 38.9155C194.304 38.5625 194.547 38.1399 194.547 37.6477C194.547 37.25 194.408 36.9169 194.13 36.6484C193.851 36.375 193.424 36.1712 192.847 36.0369L190.938 35.5895C189.889 35.3409 189.118 34.9556 188.626 34.4336C188.139 33.9066 187.895 33.2479 187.895 32.4574C187.895 31.8111 188.077 31.2393 188.44 30.7422C188.808 30.245 189.307 29.8548 189.939 29.5714C190.575 29.288 191.296 29.1463 192.101 29.1463C193.235 29.1463 194.125 29.3949 194.771 29.892C195.422 30.3892 195.885 31.0455 196.158 31.8608ZM209.996 40.9886C208.922 40.9886 207.997 40.7351 207.222 40.228C206.446 39.7209 205.85 39.0224 205.432 38.1325C205.014 37.2425 204.806 36.2259 204.806 35.0824C204.806 33.919 205.019 32.8924 205.447 32.0025C205.879 31.1076 206.481 30.4091 207.252 29.907C208.027 29.3999 208.932 29.1463 209.966 29.1463C210.771 29.1463 211.497 29.2955 212.144 29.5938C212.79 29.892 213.319 30.3097 213.732 30.8466C214.145 31.3835 214.401 32.0099 214.5 32.7259H212.74C212.606 32.2038 212.308 31.7415 211.845 31.3388C211.388 30.9311 210.771 30.7273 209.996 30.7273C209.31 30.7273 208.708 30.9062 208.191 31.2642C207.679 31.6172 207.279 32.1168 206.991 32.7631C206.707 33.4045 206.565 34.1577 206.565 35.0227C206.565 35.9077 206.705 36.6783 206.983 37.3345C207.266 37.9908 207.664 38.5004 208.176 38.8633C208.693 39.2262 209.3 39.4077 209.996 39.4077C210.453 39.4077 210.868 39.3281 211.241 39.169C211.614 39.0099 211.93 38.7812 212.188 38.483C212.447 38.1847 212.631 37.8267 212.74 37.4091H214.5C214.401 38.0852 214.155 38.6942 213.762 39.2362C213.374 39.7731 212.86 40.2006 212.218 40.5188C211.582 40.832 210.841 40.9886 209.996 40.9886ZM217.283 40.75V29.2955H218.983V31.0256H219.103C219.311 30.4588 219.689 29.9989 220.236 29.646C220.783 29.293 221.399 29.1165 222.086 29.1165C222.215 29.1165 222.376 29.119 222.57 29.1239C222.764 29.1289 222.911 29.1364 223.01 29.1463V30.9361C222.951 30.9212 222.814 30.8988 222.6 30.869C222.391 30.8342 222.17 30.8168 221.936 30.8168C221.38 30.8168 220.882 30.9336 220.445 31.1673C220.012 31.396 219.669 31.7141 219.416 32.1218C219.167 32.5245 219.043 32.9844 219.043 33.5014V40.75H217.283ZM228.677 41.0185C227.951 41.0185 227.293 40.8817 226.701 40.6083C226.109 40.3299 225.64 39.9297 225.292 39.4077C224.944 38.8807 224.769 38.2443 224.769 37.4986C224.769 36.8423 224.899 36.3104 225.157 35.9027C225.416 35.4901 225.761 35.1669 226.194 34.9332C226.626 34.6996 227.104 34.5256 227.626 34.4112C228.153 34.2919 228.682 34.1974 229.214 34.1278C229.91 34.0384 230.474 33.9712 230.907 33.9265C231.344 33.8768 231.663 33.7947 231.861 33.6804C232.065 33.5661 232.167 33.3672 232.167 33.0838V33.0241C232.167 32.2884 231.966 31.7166 231.563 31.3089C231.165 30.9013 230.561 30.6974 229.751 30.6974C228.911 30.6974 228.252 30.8814 227.775 31.2493C227.298 31.6172 226.962 32.0099 226.768 32.4276L225.098 31.831C225.396 31.1349 225.794 30.593 226.291 30.2053C226.793 29.8125 227.34 29.5391 227.931 29.3849C228.528 29.2259 229.115 29.1463 229.691 29.1463C230.059 29.1463 230.482 29.1911 230.959 29.2805C231.441 29.3651 231.906 29.5415 232.354 29.81C232.806 30.0785 233.181 30.4837 233.48 31.0256C233.778 31.5675 233.927 32.2933 233.927 33.2031V40.75H232.167V39.1989H232.078C231.958 39.4474 231.76 39.7134 231.481 39.9968C231.203 40.2802 230.832 40.5213 230.37 40.7202C229.908 40.919 229.343 41.0185 228.677 41.0185ZM228.946 39.4375C229.642 39.4375 230.228 39.3008 230.706 39.0273C231.188 38.7539 231.551 38.4009 231.794 37.9684C232.043 37.5359 232.167 37.081 232.167 36.6037V34.9929C232.093 35.0824 231.929 35.1644 231.675 35.239C231.426 35.3086 231.138 35.3707 230.81 35.4254C230.487 35.4751 230.171 35.5199 229.863 35.5597C229.56 35.5945 229.314 35.6243 229.125 35.6491C228.667 35.7088 228.24 35.8058 227.842 35.94C227.449 36.0692 227.131 36.2656 226.887 36.5291C226.649 36.7876 226.529 37.1406 226.529 37.5881C226.529 38.1996 226.756 38.6619 227.208 38.9751C227.665 39.2834 228.245 39.4375 228.946 39.4375ZM242.45 29.2955V30.7869H236.276V29.2955H242.45ZM238.125 40.75V27.7145C238.125 27.0582 238.279 26.5114 238.587 26.0739C238.896 25.6364 239.296 25.3082 239.788 25.0895C240.28 24.8707 240.8 24.7614 241.347 24.7614C241.779 24.7614 242.132 24.7962 242.406 24.8658C242.679 24.9354 242.883 25 243.017 25.0597L242.51 26.581C242.42 26.5511 242.296 26.5138 242.137 26.4691C241.983 26.4244 241.779 26.402 241.526 26.402C240.944 26.402 240.524 26.5486 240.265 26.842C240.012 27.1353 239.885 27.5653 239.885 28.1321V40.75H238.125ZM250.108 29.2955V30.7869H244.172V29.2955H250.108ZM245.902 26.5511H247.662V37.4688C247.662 37.9659 247.734 38.3388 247.879 38.5874C248.028 38.831 248.217 38.995 248.445 39.0795C248.679 39.1591 248.925 39.1989 249.184 39.1989C249.378 39.1989 249.537 39.1889 249.661 39.169C249.785 39.1442 249.885 39.1243 249.959 39.1094L250.317 40.6903C250.198 40.7351 250.031 40.7798 249.818 40.8246C249.604 40.8743 249.333 40.8991 249.005 40.8991C248.507 40.8991 248.02 40.7923 247.543 40.5785C247.071 40.3647 246.678 40.0391 246.365 39.6016C246.057 39.1641 245.902 38.6122 245.902 37.946V26.5511ZM257.645 40.9886C256.542 40.9886 255.589 40.745 254.789 40.2578C253.994 39.7656 253.38 39.0795 252.947 38.1996C252.52 37.3146 252.306 36.2855 252.306 35.1122C252.306 33.9389 252.52 32.9048 252.947 32.0099C253.38 31.1101 253.981 30.4091 254.752 29.907C255.527 29.3999 256.432 29.1463 257.466 29.1463C258.063 29.1463 258.652 29.2457 259.234 29.4446C259.815 29.6435 260.345 29.9666 260.822 30.4141C261.299 30.8565 261.68 31.4432 261.963 32.174C262.246 32.9048 262.388 33.8047 262.388 34.8736V35.6193H253.559V34.098H260.598C260.598 33.4517 260.469 32.875 260.211 32.3679C259.957 31.8608 259.594 31.4606 259.122 31.1673C258.654 30.8739 258.103 30.7273 257.466 30.7273C256.765 30.7273 256.159 30.9013 255.647 31.2493C255.14 31.5923 254.749 32.0398 254.476 32.5916C254.202 33.1435 254.066 33.7351 254.066 34.3665V35.3807C254.066 36.2457 254.215 36.979 254.513 37.5806C254.816 38.1772 255.237 38.6321 255.773 38.9453C256.31 39.2536 256.934 39.4077 257.645 39.4077C258.108 39.4077 258.525 39.343 258.898 39.2138C259.276 39.0795 259.602 38.8807 259.875 38.6172C260.148 38.3487 260.36 38.0156 260.509 37.6179L262.209 38.0952C262.03 38.6719 261.729 39.179 261.307 39.6165C260.884 40.049 260.362 40.3871 259.741 40.6307C259.119 40.8693 258.421 40.9886 257.645 40.9886ZM269.601 40.9886C268.646 40.9886 267.803 40.7475 267.073 40.2653C266.342 39.7781 265.77 39.092 265.357 38.207C264.945 37.3171 264.738 36.2656 264.738 35.0526C264.738 33.8494 264.945 32.8054 265.357 31.9205C265.77 31.0355 266.344 30.3519 267.08 29.8697C267.816 29.3874 268.666 29.1463 269.63 29.1463C270.376 29.1463 270.965 29.2706 271.398 29.5192C271.835 29.7628 272.168 30.0412 272.397 30.3544C272.631 30.6626 272.812 30.9162 272.942 31.1151H273.091V25.4773H274.851V40.75H273.15V38.9901H272.942C272.812 39.1989 272.628 39.4624 272.39 39.7805C272.151 40.0937 271.81 40.3746 271.368 40.6232C270.926 40.8668 270.336 40.9886 269.601 40.9886ZM269.839 39.4077C270.545 39.4077 271.142 39.2237 271.629 38.8558C272.116 38.483 272.487 37.9684 272.74 37.3121C272.994 36.6509 273.121 35.8878 273.121 35.0227C273.121 34.1676 272.996 33.4194 272.748 32.7781C272.499 32.1317 272.131 31.6296 271.644 31.2717C271.157 30.9087 270.555 30.7273 269.839 30.7273C269.094 30.7273 268.472 30.9187 267.975 31.3015C267.483 31.6793 267.112 32.1939 266.864 32.8452C266.62 33.4915 266.498 34.2173 266.498 35.0227C266.498 35.8381 266.623 36.5788 266.871 37.245C267.125 37.9062 267.498 38.4332 267.99 38.826C268.487 39.2138 269.103 39.4077 269.839 39.4077ZM284.883 40.75V25.4773H286.643V31.1151H286.792C286.922 30.9162 287.101 30.6626 287.329 30.3544C287.563 30.0412 287.896 29.7628 288.329 29.5192C288.766 29.2706 289.358 29.1463 290.103 29.1463C291.068 29.1463 291.918 29.3874 292.654 29.8697C293.39 30.3519 293.964 31.0355 294.376 31.9205C294.789 32.8054 294.995 33.8494 294.995 35.0526C294.995 36.2656 294.789 37.3171 294.376 38.207C293.964 39.092 293.392 39.7781 292.661 40.2653C291.93 40.7475 291.088 40.9886 290.133 40.9886C289.397 40.9886 288.808 40.8668 288.366 40.6232C287.923 40.3746 287.583 40.0937 287.344 39.7805C287.106 39.4624 286.922 39.1989 286.792 38.9901H286.583V40.75H284.883ZM286.613 35.0227C286.613 35.8878 286.74 36.6509 286.994 37.3121C287.247 37.9684 287.618 38.483 288.105 38.8558C288.592 39.2237 289.189 39.4077 289.895 39.4077C290.63 39.4077 291.244 39.2138 291.737 38.826C292.234 38.4332 292.607 37.9062 292.855 37.245C293.109 36.5788 293.235 35.8381 293.235 35.0227C293.235 34.2173 293.111 33.4915 292.863 32.8452C292.619 32.1939 292.249 31.6793 291.751 31.3015C291.259 30.9187 290.64 30.7273 289.895 30.7273C289.179 30.7273 288.577 30.9087 288.09 31.2717C287.603 31.6296 287.235 32.1317 286.986 32.7781C286.738 33.4194 286.613 34.1676 286.613 35.0227ZM298.621 45.0455C298.323 45.0455 298.057 45.0206 297.823 44.9709C297.589 44.9261 297.428 44.8814 297.338 44.8366L297.786 43.2855C298.213 43.3949 298.591 43.4347 298.919 43.4048C299.247 43.375 299.538 43.2283 299.792 42.9648C300.05 42.7063 300.286 42.2862 300.5 41.7045L300.828 40.8097L296.592 29.2955H298.502L301.664 38.4233H301.783L304.945 29.2955H306.854L301.992 42.4205C301.773 43.0121 301.502 43.5018 301.179 43.8896C300.856 44.2823 300.48 44.5732 300.053 44.7621C299.63 44.951 299.153 45.0455 298.621 45.0455ZM317.263 25.4773V40.75H315.503V25.4773H317.263ZM325.35 40.9886C324.316 40.9886 323.408 40.7425 322.628 40.2504C321.852 39.7582 321.246 39.0696 320.808 38.1847C320.376 37.2997 320.16 36.2656 320.16 35.0824C320.16 33.8892 320.376 32.8477 320.808 31.9577C321.246 31.0678 321.852 30.3768 322.628 29.8846C323.408 29.3924 324.316 29.1463 325.35 29.1463C326.384 29.1463 327.289 29.3924 328.064 29.8846C328.845 30.3768 329.451 31.0678 329.884 31.9577C330.321 32.8477 330.54 33.8892 330.54 35.0824C330.54 36.2656 330.321 37.2997 329.884 38.1847C329.451 39.0696 328.845 39.7582 328.064 40.2504C327.289 40.7425 326.384 40.9886 325.35 40.9886ZM325.35 39.4077C326.135 39.4077 326.782 39.2063 327.289 38.8036C327.796 38.4009 328.171 37.8714 328.415 37.2152C328.658 36.5589 328.78 35.848 328.78 35.0824C328.78 34.3168 328.658 33.6033 328.415 32.9421C328.171 32.2809 327.796 31.7464 327.289 31.3388C326.782 30.9311 326.135 30.7273 325.35 30.7273C324.564 30.7273 323.918 30.9311 323.411 31.3388C322.904 31.7464 322.529 32.2809 322.285 32.9421C322.041 33.6033 321.919 34.3168 321.919 35.0824C321.919 35.848 322.041 36.5589 322.285 37.2152C322.529 37.8714 322.904 38.4009 323.411 38.8036C323.918 39.2063 324.564 39.4077 325.35 39.4077ZM338.09 40.9886C337.016 40.9886 336.092 40.7351 335.316 40.228C334.54 39.7209 333.944 39.0224 333.526 38.1325C333.109 37.2425 332.9 36.2259 332.9 35.0824C332.9 33.919 333.114 32.8924 333.541 32.0025C333.974 31.1076 334.575 30.4091 335.346 29.907C336.121 29.3999 337.026 29.1463 338.06 29.1463C338.866 29.1463 339.592 29.2955 340.238 29.5938C340.884 29.892 341.414 30.3097 341.826 30.8466C342.239 31.3835 342.495 32.0099 342.594 32.7259H340.834C340.7 32.2038 340.402 31.7415 339.94 31.3388C339.482 30.9311 338.866 30.7273 338.09 30.7273C337.404 30.7273 336.803 30.9062 336.285 31.2642C335.773 31.6172 335.373 32.1168 335.085 32.7631C334.801 33.4045 334.66 34.1577 334.66 35.0227C334.66 35.9077 334.799 36.6783 335.077 37.3345C335.361 37.9908 335.758 38.5004 336.271 38.8633C336.788 39.2262 337.394 39.4077 338.09 39.4077C338.548 39.4077 338.963 39.3281 339.336 39.169C339.708 39.0099 340.024 38.7812 340.283 38.483C340.541 38.1847 340.725 37.8267 340.834 37.4091H342.594C342.495 38.0852 342.249 38.6942 341.856 39.2362C341.468 39.7731 340.954 40.2006 340.312 40.5188C339.676 40.832 338.935 40.9886 338.09 40.9886ZM348.748 41.0185C348.022 41.0185 347.363 40.8817 346.772 40.6083C346.18 40.3299 345.71 39.9297 345.362 39.4077C345.014 38.8807 344.84 38.2443 344.84 37.4986C344.84 36.8423 344.97 36.3104 345.228 35.9027C345.487 35.4901 345.832 35.1669 346.265 34.9332C346.697 34.6996 347.174 34.5256 347.696 34.4112C348.223 34.2919 348.753 34.1974 349.285 34.1278C349.981 34.0384 350.545 33.9712 350.978 33.9265C351.415 33.8768 351.733 33.7947 351.932 33.6804C352.136 33.5661 352.238 33.3672 352.238 33.0838V33.0241C352.238 32.2884 352.037 31.7166 351.634 31.3089C351.236 30.9013 350.632 30.6974 349.822 30.6974C348.982 30.6974 348.323 30.8814 347.846 31.2493C347.368 31.6172 347.033 32.0099 346.839 32.4276L345.168 31.831C345.467 31.1349 345.864 30.593 346.362 30.2053C346.864 29.8125 347.411 29.5391 348.002 29.3849C348.599 29.2259 349.185 29.1463 349.762 29.1463C350.13 29.1463 350.553 29.1911 351.03 29.2805C351.512 29.3651 351.977 29.5415 352.424 29.81C352.877 30.0785 353.252 30.4837 353.551 31.0256C353.849 31.5675 353.998 32.2933 353.998 33.2031V40.75H352.238V39.1989H352.149C352.029 39.4474 351.83 39.7134 351.552 39.9968C351.274 40.2802 350.903 40.5213 350.441 40.7202C349.978 40.919 349.414 41.0185 348.748 41.0185ZM349.016 39.4375C349.712 39.4375 350.299 39.3008 350.776 39.0273C351.259 38.7539 351.622 38.4009 351.865 37.9684C352.114 37.5359 352.238 37.081 352.238 36.6037V34.9929C352.163 35.0824 351.999 35.1644 351.746 35.239C351.497 35.3086 351.209 35.3707 350.881 35.4254C350.558 35.4751 350.242 35.5199 349.934 35.5597C349.63 35.5945 349.384 35.6243 349.195 35.6491C348.738 35.7088 348.31 35.8058 347.913 35.94C347.52 36.0692 347.202 36.2656 346.958 36.5291C346.72 36.7876 346.6 37.1406 346.6 37.5881C346.6 38.1996 346.826 38.6619 347.279 38.9751C347.736 39.2834 348.315 39.4375 349.016 39.4375ZM359.18 25.4773V40.75H357.42V25.4773H359.18ZM370.727 31.8608L369.146 32.3082C369.047 32.0447 368.9 31.7887 368.706 31.5401C368.517 31.2866 368.259 31.0778 367.931 30.9137C367.603 30.7496 367.183 30.6676 366.67 30.6676C365.969 30.6676 365.385 30.8292 364.918 31.1523C364.456 31.4705 364.224 31.8757 364.224 32.3679C364.224 32.8054 364.384 33.1509 364.702 33.4045C365.02 33.658 365.517 33.8693 366.193 34.0384L367.893 34.456C368.918 34.7045 369.681 35.0849 370.183 35.5969C370.685 36.104 370.936 36.7578 370.936 37.5582C370.936 38.2145 370.747 38.8011 370.369 39.3182C369.996 39.8352 369.474 40.2429 368.803 40.5412C368.132 40.8395 367.352 40.9886 366.462 40.9886C365.293 40.9886 364.326 40.7351 363.561 40.228C362.795 39.7209 362.31 38.9801 362.107 38.0057L363.777 37.5881C363.936 38.2045 364.237 38.6669 364.679 38.9751C365.127 39.2834 365.711 39.4375 366.432 39.4375C367.252 39.4375 367.903 39.2635 368.386 38.9155C368.873 38.5625 369.116 38.1399 369.116 37.6477C369.116 37.25 368.977 36.9169 368.699 36.6484C368.42 36.375 367.993 36.1712 367.416 36.0369L365.507 35.5895C364.458 35.3409 363.687 34.9556 363.195 34.4336C362.708 33.9066 362.464 33.2479 362.464 32.4574C362.464 31.8111 362.646 31.2393 363.009 30.7422C363.377 30.245 363.876 29.8548 364.508 29.5714C365.144 29.288 365.865 29.1463 366.67 29.1463C367.804 29.1463 368.694 29.3949 369.34 29.892C369.991 30.3892 370.454 31.0455 370.727 31.8608Z" fill="#808080"/>
</svg>
