<svg width="719" height="31" viewBox="0 0 719 31" fill="none" xmlns="http://www.w3.org/2000/svg">
<path d="M6.36364 24.3636L2.08616e-06 1.0909H2.86364L7.72727 20.0455H7.95455L12.9091 1.0909H16.0909L21.0455 20.0455H21.2727L26.1364 1.0909H29L22.6364 24.3636H19.7273L14.5909 5.81818H14.4091L9.27273 24.3636H6.36364ZM34.8295 13.8636V24.3636H32.1477V1.0909H34.8295V9.63636H35.0568C35.4659 8.73484 36.0795 8.01893 36.8977 7.48863C37.7235 6.95075 38.822 6.68181 40.1932 6.68181C41.3826 6.68181 42.4242 6.92045 43.3182 7.39772C44.2121 7.86742 44.9053 8.5909 45.3977 9.56818C45.8977 10.5379 46.1477 11.7727 46.1477 13.2727V24.3636H43.4659V13.4545C43.4659 12.0682 43.1061 10.9962 42.3864 10.2386C41.6742 9.47348 40.6856 9.0909 39.4205 9.0909C38.5417 9.0909 37.7538 9.27651 37.0568 9.64772C36.3674 10.0189 35.822 10.5606 35.4205 11.2727C35.0265 11.9848 34.8295 12.8485 34.8295 13.8636ZM58.3722 24.7273C56.6903 24.7273 55.2396 24.3561 54.0199 23.6136C52.8078 22.8636 51.8722 21.8182 51.2131 20.4773C50.5616 19.1288 50.2358 17.5606 50.2358 15.7727C50.2358 13.9848 50.5616 12.4091 51.2131 11.0455C51.8722 9.67424 52.7888 8.60606 53.9631 7.8409C55.1449 7.06818 56.5237 6.68181 58.0994 6.68181C59.0085 6.68181 59.9063 6.83333 60.7926 7.13636C61.679 7.43939 62.4858 7.93181 63.2131 8.61363C63.9403 9.28787 64.5199 10.1818 64.9517 11.2955C65.3835 12.4091 65.5994 13.7803 65.5994 15.4091V16.5455H52.1449V14.2273H62.8722C62.8722 13.2424 62.6752 12.3636 62.2813 11.5909C61.8949 10.8182 61.3419 10.2083 60.6222 9.76136C59.91 9.31439 59.0691 9.0909 58.0994 9.0909C57.0313 9.0909 56.107 9.35606 55.3267 9.88636C54.554 10.4091 53.9593 11.0909 53.5426 11.9318C53.1259 12.7727 52.9176 13.6742 52.9176 14.6364V16.1818C52.9176 17.5 53.1449 18.6174 53.5994 19.5341C54.0616 20.4432 54.7017 21.1364 55.5199 21.6136C56.3381 22.0833 57.2888 22.3182 58.3722 22.3182C59.0767 22.3182 59.7131 22.2197 60.2813 22.0227C60.857 21.8182 61.3532 21.5151 61.7699 21.1136C62.1866 20.7045 62.5085 20.197 62.7358 19.5909L65.3267 20.3182C65.054 21.197 64.5956 21.9697 63.9517 22.6364C63.3078 23.2955 62.5123 23.8106 61.5653 24.1818C60.6184 24.5455 59.554 24.7273 58.3722 24.7273ZM72.3608 13.8636V24.3636H69.679V6.90909H72.2699V9.63636H72.4972C72.9063 8.75 73.5275 8.03787 74.3608 7.5C75.1941 6.95454 76.2699 6.68181 77.5881 6.68181C78.7699 6.68181 79.804 6.92424 80.6903 7.40909C81.5767 7.88636 82.2661 8.61363 82.7585 9.5909C83.2509 10.5606 83.4972 11.7879 83.4972 13.2727V24.3636H80.8153V13.4545C80.8153 12.0833 80.4593 11.0151 79.7472 10.25C79.035 9.47727 78.0578 9.0909 76.8153 9.0909C75.9593 9.0909 75.1941 9.27651 74.5199 9.64772C73.8532 10.0189 73.3267 10.5606 72.9403 11.2727C72.554 11.9848 72.3608 12.8485 72.3608 13.8636ZM101.352 24.3636L96.0341 6.90909H98.8523L102.625 20.2727H102.807L106.534 6.90909H109.398L113.08 20.2273H113.261L117.034 6.90909H119.852L114.534 24.3636H111.898L108.08 10.9545H107.807L103.989 24.3636H101.352ZM128.534 24.7727C127.428 24.7727 126.424 24.5644 125.523 24.1477C124.621 23.7235 123.905 23.1136 123.375 22.3182C122.845 21.5151 122.58 20.5455 122.58 19.4091C122.58 18.4091 122.777 17.5985 123.17 16.9773C123.564 16.3485 124.091 15.8561 124.75 15.5C125.409 15.1439 126.136 14.8788 126.932 14.7045C127.735 14.5227 128.542 14.3788 129.352 14.2727C130.413 14.1364 131.273 14.0341 131.932 13.9659C132.598 13.8901 133.083 13.7651 133.386 13.5909C133.697 13.4167 133.852 13.1136 133.852 12.6818V12.5909C133.852 11.4697 133.545 10.5985 132.932 9.97727C132.326 9.35606 131.405 9.04545 130.17 9.04545C128.89 9.04545 127.886 9.32575 127.159 9.88636C126.432 10.447 125.92 11.0454 125.625 11.6818L123.08 10.7727C123.534 9.71212 124.14 8.88636 124.898 8.29545C125.663 7.69696 126.496 7.2803 127.398 7.04545C128.307 6.80303 129.201 6.68181 130.08 6.68181C130.64 6.68181 131.284 6.75 132.011 6.88636C132.746 7.01515 133.455 7.28409 134.136 7.69318C134.826 8.10227 135.398 8.71969 135.852 9.54545C136.307 10.3712 136.534 11.4773 136.534 12.8636V24.3636H133.852V22H133.716C133.534 22.3788 133.231 22.7841 132.807 23.2159C132.383 23.6477 131.818 24.0151 131.114 24.3182C130.409 24.6212 129.549 24.7727 128.534 24.7727ZM128.943 22.3636C130.004 22.3636 130.898 22.1553 131.625 21.7386C132.36 21.322 132.913 20.7841 133.284 20.125C133.663 19.4659 133.852 18.7727 133.852 18.0455V15.5909C133.739 15.7273 133.489 15.8523 133.102 15.9659C132.723 16.072 132.284 16.1667 131.784 16.25C131.292 16.3258 130.811 16.3939 130.341 16.4545C129.879 16.5076 129.504 16.553 129.216 16.5909C128.519 16.6818 127.867 16.8295 127.261 17.0341C126.663 17.2311 126.178 17.5303 125.807 17.9318C125.443 18.3258 125.261 18.8636 125.261 19.5455C125.261 20.4773 125.606 21.1818 126.295 21.6591C126.992 22.1288 127.875 22.3636 128.943 22.3636ZM153.793 10.8182L151.384 11.5C151.232 11.0985 151.009 10.7083 150.713 10.3295C150.425 9.94318 150.031 9.625 149.531 9.375C149.031 9.125 148.391 9 147.611 9C146.543 9 145.652 9.24621 144.94 9.73863C144.236 10.2235 143.884 10.8409 143.884 11.5909C143.884 12.2576 144.126 12.7841 144.611 13.1705C145.096 13.5568 145.853 13.8788 146.884 14.1364L149.474 14.7727C151.035 15.1515 152.198 15.7311 152.963 16.5114C153.728 17.2841 154.111 18.2803 154.111 19.5C154.111 20.5 153.823 21.3939 153.247 22.1818C152.679 22.9697 151.884 23.5909 150.861 24.0455C149.838 24.5 148.649 24.7273 147.293 24.7273C145.512 24.7273 144.039 24.3409 142.872 23.5682C141.705 22.7955 140.967 21.6667 140.656 20.1818L143.202 19.5455C143.444 20.4848 143.902 21.1894 144.577 21.6591C145.259 22.1288 146.149 22.3636 147.247 22.3636C148.497 22.3636 149.49 22.0985 150.224 21.5682C150.967 21.0303 151.338 20.3864 151.338 19.6364C151.338 19.0303 151.126 18.5227 150.702 18.1136C150.277 17.697 149.626 17.3864 148.747 17.1818L145.838 16.5C144.24 16.1212 143.065 15.5341 142.315 14.7386C141.573 13.9356 141.202 12.9318 141.202 11.7273C141.202 10.7424 141.478 9.87121 142.031 9.11363C142.592 8.35606 143.353 7.76136 144.315 7.32954C145.285 6.89772 146.384 6.68181 147.611 6.68181C149.338 6.68181 150.694 7.0606 151.679 7.81818C152.671 8.57575 153.376 9.57575 153.793 10.8182ZM174.739 6.90909V9.18181H165.693V6.90909H174.739ZM168.33 2.72727H171.011V19.3636C171.011 20.1212 171.121 20.6894 171.341 21.0682C171.568 21.4394 171.856 21.6894 172.205 21.8182C172.561 21.9394 172.936 22 173.33 22C173.625 22 173.867 21.9848 174.057 21.9545C174.246 21.9167 174.398 21.8864 174.511 21.8636L175.057 24.2727C174.875 24.3409 174.621 24.4091 174.295 24.4773C173.97 24.553 173.557 24.5909 173.057 24.5909C172.299 24.5909 171.557 24.428 170.83 24.1023C170.11 23.7765 169.511 23.2803 169.034 22.6136C168.564 21.947 168.33 21.1061 168.33 20.0909V2.72727ZM181.83 13.8636V24.3636H179.148V1.0909H181.83V9.63636H182.057C182.466 8.73484 183.08 8.01893 183.898 7.48863C184.723 6.95075 185.822 6.68181 187.193 6.68181C188.383 6.68181 189.424 6.92045 190.318 7.39772C191.212 7.86742 191.905 8.5909 192.398 9.56818C192.898 10.5379 193.148 11.7727 193.148 13.2727V24.3636H190.466V13.4545C190.466 12.0682 190.106 10.9962 189.386 10.2386C188.674 9.47348 187.686 9.0909 186.42 9.0909C185.542 9.0909 184.754 9.27651 184.057 9.64772C183.367 10.0189 182.822 10.5606 182.42 11.2727C182.027 11.9848 181.83 12.8485 181.83 13.8636ZM205.372 24.7273C203.69 24.7273 202.24 24.3561 201.02 23.6136C199.808 22.8636 198.872 21.8182 198.213 20.4773C197.562 19.1288 197.236 17.5606 197.236 15.7727C197.236 13.9848 197.562 12.4091 198.213 11.0455C198.872 9.67424 199.789 8.60606 200.963 7.8409C202.145 7.06818 203.524 6.68181 205.099 6.68181C206.009 6.68181 206.906 6.83333 207.793 7.13636C208.679 7.43939 209.486 7.93181 210.213 8.61363C210.94 9.28787 211.52 10.1818 211.952 11.2955C212.384 12.4091 212.599 13.7803 212.599 15.4091V16.5455H199.145V14.2273H209.872C209.872 13.2424 209.675 12.3636 209.281 11.5909C208.895 10.8182 208.342 10.2083 207.622 9.76136C206.91 9.31439 206.069 9.0909 205.099 9.0909C204.031 9.0909 203.107 9.35606 202.327 9.88636C201.554 10.4091 200.959 11.0909 200.543 11.9318C200.126 12.7727 199.918 13.6742 199.918 14.6364V16.1818C199.918 17.5 200.145 18.6174 200.599 19.5341C201.062 20.4432 201.702 21.1364 202.52 21.6136C203.338 22.0833 204.289 22.3182 205.372 22.3182C206.077 22.3182 206.713 22.2197 207.281 22.0227C207.857 21.8182 208.353 21.5151 208.77 21.1136C209.187 20.7045 209.509 20.197 209.736 19.5909L212.327 20.3182C212.054 21.197 211.596 21.9697 210.952 22.6364C210.308 23.2955 209.512 23.8106 208.565 24.1818C207.618 24.5455 206.554 24.7273 205.372 24.7273ZM228.361 1.0909V24.3636H225.679V1.0909H228.361ZM238.409 24.7727C237.303 24.7727 236.299 24.5644 235.398 24.1477C234.496 23.7235 233.78 23.1136 233.25 22.3182C232.72 21.5151 232.455 20.5455 232.455 19.4091C232.455 18.4091 232.652 17.5985 233.045 16.9773C233.439 16.3485 233.966 15.8561 234.625 15.5C235.284 15.1439 236.011 14.8788 236.807 14.7045C237.61 14.5227 238.417 14.3788 239.227 14.2727C240.288 14.1364 241.148 14.0341 241.807 13.9659C242.473 13.8901 242.958 13.7651 243.261 13.5909C243.572 13.4167 243.727 13.1136 243.727 12.6818V12.5909C243.727 11.4697 243.42 10.5985 242.807 9.97727C242.201 9.35606 241.28 9.04545 240.045 9.04545C238.765 9.04545 237.761 9.32575 237.034 9.88636C236.307 10.447 235.795 11.0454 235.5 11.6818L232.955 10.7727C233.409 9.71212 234.015 8.88636 234.773 8.29545C235.538 7.69696 236.371 7.2803 237.273 7.04545C238.182 6.80303 239.076 6.68181 239.955 6.68181C240.515 6.68181 241.159 6.75 241.886 6.88636C242.621 7.01515 243.33 7.28409 244.011 7.69318C244.701 8.10227 245.273 8.71969 245.727 9.54545C246.182 10.3712 246.409 11.4773 246.409 12.8636V24.3636H243.727V22H243.591C243.409 22.3788 243.106 22.7841 242.682 23.2159C242.258 23.6477 241.693 24.0151 240.989 24.3182C240.284 24.6212 239.424 24.7727 238.409 24.7727ZM238.818 22.3636C239.879 22.3636 240.773 22.1553 241.5 21.7386C242.235 21.322 242.788 20.7841 243.159 20.125C243.538 19.4659 243.727 18.7727 243.727 18.0455V15.5909C243.614 15.7273 243.364 15.8523 242.977 15.9659C242.598 16.072 242.159 16.1667 241.659 16.25C241.167 16.3258 240.686 16.3939 240.216 16.4545C239.754 16.5076 239.379 16.553 239.091 16.5909C238.394 16.6818 237.742 16.8295 237.136 17.0341C236.538 17.2311 236.053 17.5303 235.682 17.9318C235.318 18.3258 235.136 18.8636 235.136 19.5455C235.136 20.4773 235.481 21.1818 236.17 21.6591C236.867 22.1288 237.75 22.3636 238.818 22.3636ZM263.668 10.8182L261.259 11.5C261.107 11.0985 260.884 10.7083 260.588 10.3295C260.3 9.94318 259.906 9.625 259.406 9.375C258.906 9.125 258.266 9 257.486 9C256.418 9 255.527 9.24621 254.815 9.73863C254.111 10.2235 253.759 10.8409 253.759 11.5909C253.759 12.2576 254.001 12.7841 254.486 13.1705C254.971 13.5568 255.728 13.8788 256.759 14.1364L259.349 14.7727C260.91 15.1515 262.073 15.7311 262.838 16.5114C263.603 17.2841 263.986 18.2803 263.986 19.5C263.986 20.5 263.698 21.3939 263.122 22.1818C262.554 22.9697 261.759 23.5909 260.736 24.0455C259.713 24.5 258.524 24.7273 257.168 24.7273C255.387 24.7273 253.914 24.3409 252.747 23.5682C251.58 22.7955 250.842 21.6667 250.531 20.1818L253.077 19.5455C253.319 20.4848 253.777 21.1894 254.452 21.6591C255.134 22.1288 256.024 22.3636 257.122 22.3636C258.372 22.3636 259.365 22.0985 260.099 21.5682C260.842 21.0303 261.213 20.3864 261.213 19.6364C261.213 19.0303 261.001 18.5227 260.577 18.1136C260.152 17.697 259.501 17.3864 258.622 17.1818L255.713 16.5C254.115 16.1212 252.94 15.5341 252.19 14.7386C251.448 13.9356 251.077 12.9318 251.077 11.7273C251.077 10.7424 251.353 9.87121 251.906 9.11363C252.467 8.35606 253.228 7.76136 254.19 7.32954C255.16 6.89772 256.259 6.68181 257.486 6.68181C259.213 6.68181 260.569 7.0606 261.554 7.81818C262.546 8.57575 263.251 9.57575 263.668 10.8182ZM275.614 6.90909V9.18181H266.568V6.90909H275.614ZM269.205 2.72727H271.886V19.3636C271.886 20.1212 271.996 20.6894 272.216 21.0682C272.443 21.4394 272.731 21.6894 273.08 21.8182C273.436 21.9394 273.811 22 274.205 22C274.5 22 274.742 21.9848 274.932 21.9545C275.121 21.9167 275.273 21.8864 275.386 21.8636L275.932 24.2727C275.75 24.3409 275.496 24.4091 275.17 24.4773C274.845 24.553 274.432 24.5909 273.932 24.5909C273.174 24.5909 272.432 24.428 271.705 24.1023C270.985 23.7765 270.386 23.2803 269.909 22.6136C269.439 21.947 269.205 21.1061 269.205 20.0909V2.72727ZM296.239 6.90909V9.18181H287.193V6.90909H296.239ZM289.83 2.72727H292.511V19.3636C292.511 20.1212 292.621 20.6894 292.841 21.0682C293.068 21.4394 293.356 21.6894 293.705 21.8182C294.061 21.9394 294.436 22 294.83 22C295.125 22 295.367 21.9848 295.557 21.9545C295.746 21.9167 295.898 21.8864 296.011 21.8636L296.557 24.2727C296.375 24.3409 296.121 24.4091 295.795 24.4773C295.47 24.553 295.057 24.5909 294.557 24.5909C293.799 24.5909 293.057 24.428 292.33 24.1023C291.61 23.7765 291.011 23.2803 290.534 22.6136C290.064 21.947 289.83 21.1061 289.83 20.0909V2.72727ZM300.273 24.3636V6.90909H302.955V24.3636H300.273ZM301.636 4C301.114 4 300.663 3.82197 300.284 3.4659C299.913 3.10984 299.727 2.68181 299.727 2.18181C299.727 1.68181 299.913 1.25378 300.284 0.897722C300.663 0.541662 301.114 0.363632 301.636 0.363632C302.159 0.363632 302.606 0.541662 302.977 0.897722C303.356 1.25378 303.545 1.68181 303.545 2.18181C303.545 2.68181 303.356 3.10984 302.977 3.4659C302.606 3.82197 302.159 4 301.636 4ZM307.866 24.3636V6.90909H310.457V9.63636H310.685C311.048 8.70454 311.635 7.98106 312.446 7.4659C313.257 6.94318 314.23 6.68181 315.366 6.68181C316.518 6.68181 317.476 6.94318 318.241 7.4659C319.014 7.98106 319.616 8.70454 320.048 9.63636H320.23C320.677 8.73484 321.348 8.01893 322.241 7.48863C323.135 6.95075 324.207 6.68181 325.457 6.68181C327.018 6.68181 328.295 7.17045 329.287 8.14772C330.279 9.11742 330.776 10.6288 330.776 12.6818V24.3636H328.094V12.6818C328.094 11.3939 327.741 10.4735 327.037 9.92045C326.332 9.36742 325.503 9.0909 324.548 9.0909C323.321 9.0909 322.37 9.46212 321.696 10.2045C321.022 10.9394 320.685 11.8712 320.685 13V24.3636H317.957V12.4091C317.957 11.4167 317.635 10.6174 316.991 10.0114C316.348 9.39772 315.518 9.0909 314.503 9.0909C313.806 9.0909 313.154 9.27651 312.548 9.64772C311.95 10.0189 311.465 10.5341 311.094 11.1932C310.73 11.8447 310.548 12.5985 310.548 13.4545V24.3636H307.866ZM342.997 24.7273C341.315 24.7273 339.865 24.3561 338.645 23.6136C337.433 22.8636 336.497 21.8182 335.838 20.4773C335.187 19.1288 334.861 17.5606 334.861 15.7727C334.861 13.9848 335.187 12.4091 335.838 11.0455C336.497 9.67424 337.414 8.60606 338.588 7.8409C339.77 7.06818 341.149 6.68181 342.724 6.68181C343.634 6.68181 344.531 6.83333 345.418 7.13636C346.304 7.43939 347.111 7.93181 347.838 8.61363C348.565 9.28787 349.145 10.1818 349.577 11.2955C350.009 12.4091 350.224 13.7803 350.224 15.4091V16.5455H336.77V14.2273H347.497C347.497 13.2424 347.3 12.3636 346.906 11.5909C346.52 10.8182 345.967 10.2083 345.247 9.76136C344.535 9.31439 343.694 9.0909 342.724 9.0909C341.656 9.0909 340.732 9.35606 339.952 9.88636C339.179 10.4091 338.584 11.0909 338.168 11.9318C337.751 12.7727 337.543 13.6742 337.543 14.6364V16.1818C337.543 17.5 337.77 18.6174 338.224 19.5341C338.687 20.4432 339.327 21.1364 340.145 21.6136C340.963 22.0833 341.914 22.3182 342.997 22.3182C343.702 22.3182 344.338 22.2197 344.906 22.0227C345.482 21.8182 345.978 21.5151 346.395 21.1136C346.812 20.7045 347.134 20.197 347.361 19.5909L349.952 20.3182C349.679 21.197 349.221 21.9697 348.577 22.6364C347.933 23.2955 347.137 23.8106 346.19 24.1818C345.243 24.5455 344.179 24.7273 342.997 24.7273ZM365.031 30.9091C364.577 30.9091 364.171 30.8712 363.815 30.7955C363.459 30.7273 363.213 30.6591 363.077 30.5909L363.759 28.2273C364.41 28.3939 364.986 28.4545 365.486 28.4091C365.986 28.3636 366.429 28.1401 366.815 27.7386C367.209 27.3447 367.569 26.7045 367.895 25.8182L368.395 24.4545L361.94 6.90909H364.849L369.668 20.8182H369.849L374.668 6.90909H377.577L370.168 26.9091C369.834 27.8106 369.421 28.5568 368.929 29.1477C368.437 29.7462 367.865 30.1894 367.213 30.4773C366.569 30.7651 365.842 30.9091 365.031 30.9091ZM387.582 24.7273C386.007 24.7273 384.624 24.3523 383.435 23.6023C382.253 22.8523 381.329 21.803 380.662 20.4545C380.003 19.1061 379.673 17.5303 379.673 15.7273C379.673 13.9091 380.003 12.322 380.662 10.9659C381.329 9.60984 382.253 8.55681 383.435 7.80681C384.624 7.05681 386.007 6.68181 387.582 6.68181C389.158 6.68181 390.537 7.05681 391.719 7.80681C392.908 8.55681 393.832 9.60984 394.491 10.9659C395.158 12.322 395.491 13.9091 395.491 15.7273C395.491 17.5303 395.158 19.1061 394.491 20.4545C393.832 21.803 392.908 22.8523 391.719 23.6023C390.537 24.3523 389.158 24.7273 387.582 24.7273ZM387.582 22.3182C388.779 22.3182 389.764 22.0114 390.537 21.3977C391.31 20.7841 391.882 19.9773 392.253 18.9773C392.624 17.9773 392.81 16.8939 392.81 15.7273C392.81 14.5606 392.624 13.4735 392.253 12.4659C391.882 11.4583 391.31 10.6439 390.537 10.0227C389.764 9.40151 388.779 9.0909 387.582 9.0909C386.385 9.0909 385.401 9.40151 384.628 10.0227C383.855 10.6439 383.283 11.4583 382.912 12.4659C382.541 13.4735 382.355 14.5606 382.355 15.7273C382.355 16.8939 382.541 17.9773 382.912 18.9773C383.283 19.9773 383.855 20.7841 384.628 21.3977C385.401 22.0114 386.385 22.3182 387.582 22.3182ZM410.585 17.2273V6.90909H413.267V24.3636H410.585V21.4091H410.403C409.994 22.2955 409.358 23.0492 408.494 23.6705C407.631 24.2841 406.54 24.5909 405.222 24.5909C404.131 24.5909 403.161 24.3523 402.313 23.875C401.464 23.3901 400.797 22.6629 400.313 21.6932C399.828 20.7159 399.585 19.4848 399.585 18V6.90909H402.267V17.8182C402.267 19.0909 402.623 20.1061 403.335 20.8636C404.055 21.6212 404.972 22 406.085 22C406.752 22 407.43 21.8295 408.119 21.4886C408.816 21.1477 409.4 20.625 409.869 19.9205C410.347 19.2159 410.585 18.3182 410.585 17.2273ZM434.952 6.90909V9.18181H425.543V6.90909H434.952ZM428.361 24.3636V4.5C428.361 3.49999 428.596 2.66666 429.065 1.99999C429.535 1.33333 430.145 0.833328 430.895 0.499994C431.645 0.166661 432.437 -5.72205e-06 433.27 -5.72205e-06C433.929 -5.72205e-06 434.467 0.0530249 434.884 0.159086C435.3 0.265146 435.611 0.363631 435.815 0.45454L435.043 2.77272C434.906 2.72727 434.717 2.67045 434.474 2.60227C434.24 2.53409 433.929 2.49999 433.543 2.49999C432.656 2.49999 432.016 2.72348 431.622 3.17045C431.236 3.61742 431.043 4.27272 431.043 5.13636V24.3636H428.361ZM445.31 24.7273C443.628 24.7273 442.177 24.3561 440.957 23.6136C439.745 22.8636 438.81 21.8182 438.151 20.4773C437.499 19.1288 437.173 17.5606 437.173 15.7727C437.173 13.9848 437.499 12.4091 438.151 11.0455C438.81 9.67424 439.726 8.60606 440.901 7.8409C442.082 7.06818 443.461 6.68181 445.037 6.68181C445.946 6.68181 446.844 6.83333 447.73 7.13636C448.616 7.43939 449.423 7.93181 450.151 8.61363C450.878 9.28787 451.457 10.1818 451.889 11.2955C452.321 12.4091 452.537 13.7803 452.537 15.4091V16.5455H439.082V14.2273H449.81C449.81 13.2424 449.613 12.3636 449.219 11.5909C448.832 10.8182 448.279 10.2083 447.56 9.76136C446.848 9.31439 446.007 9.0909 445.037 9.0909C443.969 9.0909 443.045 9.35606 442.264 9.88636C441.491 10.4091 440.897 11.0909 440.48 11.9318C440.063 12.7727 439.855 13.6742 439.855 14.6364V16.1818C439.855 17.5 440.082 18.6174 440.537 19.5341C440.999 20.4432 441.639 21.1364 442.457 21.6136C443.276 22.0833 444.226 22.3182 445.31 22.3182C446.014 22.3182 446.651 22.2197 447.219 22.0227C447.795 21.8182 448.291 21.5151 448.707 21.1136C449.124 20.7045 449.446 20.197 449.673 19.5909L452.264 20.3182C451.991 21.197 451.533 21.9697 450.889 22.6364C450.245 23.2955 449.45 23.8106 448.503 24.1818C447.556 24.5455 446.491 24.7273 445.31 24.7273ZM459.298 1.0909V24.3636H456.616V1.0909H459.298ZM471.801 6.90909V9.18181H462.756V6.90909H471.801ZM465.392 2.72727H468.074V19.3636C468.074 20.1212 468.184 20.6894 468.403 21.0682C468.631 21.4394 468.919 21.6894 469.267 21.8182C469.623 21.9394 469.998 22 470.392 22C470.688 22 470.93 21.9848 471.119 21.9545C471.309 21.9167 471.46 21.8864 471.574 21.8636L472.119 24.2727C471.938 24.3409 471.684 24.4091 471.358 24.4773C471.032 24.553 470.619 24.5909 470.119 24.5909C469.362 24.5909 468.619 24.428 467.892 24.1023C467.172 23.7765 466.574 23.2803 466.097 22.6136C465.627 21.947 465.392 21.1061 465.392 20.0909V2.72727ZM487.517 1.0909V24.3636H484.835V1.0909H487.517ZM492.429 24.3636V6.90909H495.111V24.3636H492.429ZM493.793 4C493.27 4 492.819 3.82197 492.44 3.4659C492.069 3.10984 491.884 2.68181 491.884 2.18181C491.884 1.68181 492.069 1.25378 492.44 0.897722C492.819 0.541662 493.27 0.363632 493.793 0.363632C494.315 0.363632 494.762 0.541662 495.134 0.897722C495.512 1.25378 495.702 1.68181 495.702 2.18181C495.702 2.68181 495.512 3.10984 495.134 3.4659C494.762 3.82197 494.315 4 493.793 4ZM502.523 18L502.477 14.6818H503.023L510.659 6.90909H513.977L505.841 15.1364H505.614L502.523 18ZM500.023 24.3636V1.0909H502.705V24.3636H500.023ZM511.114 24.3636L504.295 15.7273L506.205 13.8636L514.523 24.3636H511.114ZM524.028 24.7273C522.347 24.7273 520.896 24.3561 519.676 23.6136C518.464 22.8636 517.528 21.8182 516.869 20.4773C516.218 19.1288 515.892 17.5606 515.892 15.7727C515.892 13.9848 516.218 12.4091 516.869 11.0455C517.528 9.67424 518.445 8.60606 519.619 7.8409C520.801 7.06818 522.18 6.68181 523.756 6.68181C524.665 6.68181 525.563 6.83333 526.449 7.13636C527.335 7.43939 528.142 7.93181 528.869 8.61363C529.597 9.28787 530.176 10.1818 530.608 11.2955C531.04 12.4091 531.256 13.7803 531.256 15.4091V16.5455H517.801V14.2273H528.528C528.528 13.2424 528.331 12.3636 527.938 11.5909C527.551 10.8182 526.998 10.2083 526.278 9.76136C525.566 9.31439 524.725 9.0909 523.756 9.0909C522.688 9.0909 521.763 9.35606 520.983 9.88636C520.21 10.4091 519.616 11.0909 519.199 11.9318C518.782 12.7727 518.574 13.6742 518.574 14.6364V16.1818C518.574 17.5 518.801 18.6174 519.256 19.5341C519.718 20.4432 520.358 21.1364 521.176 21.6136C521.994 22.0833 522.945 22.3182 524.028 22.3182C524.733 22.3182 525.369 22.2197 525.938 22.0227C526.513 21.8182 527.009 21.5151 527.426 21.1136C527.843 20.7045 528.165 20.197 528.392 19.5909L530.983 20.3182C530.71 21.197 530.252 21.9697 529.608 22.6364C528.964 23.2955 528.169 23.8106 527.222 24.1818C526.275 24.5455 525.21 24.7273 524.028 24.7273ZM564.438 9.23863H559.46C559.369 8.59469 559.184 8.02272 558.903 7.52272C558.623 7.01515 558.263 6.58333 557.824 6.22727C557.384 5.87121 556.877 5.59848 556.301 5.40909C555.733 5.21969 555.116 5.125 554.449 5.125C553.244 5.125 552.195 5.42424 551.301 6.02272C550.407 6.61363 549.714 7.47727 549.222 8.61363C548.729 9.74242 548.483 11.1136 548.483 12.7273C548.483 14.3864 548.729 15.7803 549.222 16.9091C549.722 18.0379 550.419 18.8901 551.313 19.4659C552.206 20.0417 553.241 20.3295 554.415 20.3295C555.074 20.3295 555.684 20.2424 556.244 20.0682C556.813 19.8939 557.316 19.6401 557.756 19.3068C558.195 18.9659 558.559 18.553 558.847 18.0682C559.142 17.5833 559.347 17.0303 559.46 16.4091L564.438 16.4318C564.309 17.5 563.987 18.5303 563.472 19.5227C562.964 20.5076 562.278 21.3901 561.415 22.1705C560.559 22.9432 559.536 23.5568 558.347 24.0114C557.165 24.4583 555.828 24.6818 554.335 24.6818C552.259 24.6818 550.403 24.2121 548.767 23.2727C547.138 22.3333 545.85 20.9735 544.903 19.1932C543.964 17.4129 543.494 15.2576 543.494 12.7273C543.494 10.1894 543.972 8.0303 544.926 6.25C545.881 4.46969 547.176 3.11363 548.813 2.18181C550.449 1.24242 552.29 0.772722 554.335 0.772722C555.684 0.772722 556.934 0.962116 558.085 1.3409C559.244 1.71969 560.271 2.27272 561.165 2.99999C562.059 3.71969 562.786 4.60227 563.347 5.64772C563.915 6.69318 564.278 7.89015 564.438 9.23863ZM575.761 24.7045C573.996 24.7045 572.47 24.3295 571.182 23.5795C569.902 22.822 568.913 21.7689 568.216 20.4205C567.519 19.0644 567.17 17.4924 567.17 15.7045C567.17 13.9015 567.519 12.3258 568.216 10.9773C568.913 9.62121 569.902 8.56818 571.182 7.81818C572.47 7.0606 573.996 6.68181 575.761 6.68181C577.527 6.68181 579.049 7.0606 580.33 7.81818C581.617 8.56818 582.61 9.62121 583.307 10.9773C584.004 12.3258 584.352 13.9015 584.352 15.7045C584.352 17.4924 584.004 19.0644 583.307 20.4205C582.61 21.7689 581.617 22.822 580.33 23.5795C579.049 24.3295 577.527 24.7045 575.761 24.7045ZM575.784 20.9545C576.587 20.9545 577.258 20.7273 577.795 20.2727C578.333 19.8106 578.739 19.1818 579.011 18.3864C579.292 17.5909 579.432 16.6856 579.432 15.6705C579.432 14.6553 579.292 13.75 579.011 12.9545C578.739 12.1591 578.333 11.5303 577.795 11.0682C577.258 10.6061 576.587 10.375 575.784 10.375C574.973 10.375 574.292 10.6061 573.739 11.0682C573.193 11.5303 572.78 12.1591 572.5 12.9545C572.227 13.75 572.091 14.6553 572.091 15.6705C572.091 16.6856 572.227 17.5909 572.5 18.3864C572.78 19.1818 573.193 19.8106 573.739 20.2727C574.292 20.7273 574.973 20.9545 575.784 20.9545ZM592.341 1.0909V24.3636H587.5V1.0909H592.341ZM607.412 16.9318V6.90909H612.253V24.3636H607.605V21.1932H607.423C607.029 22.2159 606.374 23.0379 605.457 23.6591C604.548 24.2803 603.438 24.5909 602.128 24.5909C600.961 24.5909 599.935 24.3258 599.048 23.7955C598.162 23.2651 597.469 22.5114 596.969 21.5341C596.476 20.5568 596.226 19.3864 596.219 18.0227V6.90909H601.06V17.1591C601.067 18.1894 601.344 19.0038 601.889 19.6023C602.435 20.2008 603.166 20.5 604.082 20.5C604.666 20.5 605.211 20.3674 605.719 20.1023C606.226 19.8295 606.635 19.428 606.946 18.8977C607.264 18.3674 607.42 17.7121 607.412 16.9318ZM616.125 24.3636V6.90909H620.739V9.98863H620.943C621.307 8.9659 621.913 8.15909 622.761 7.56818C623.61 6.97727 624.625 6.68181 625.807 6.68181C627.004 6.68181 628.023 6.98106 628.864 7.57954C629.705 8.17045 630.265 8.97348 630.545 9.98863H630.727C631.083 8.98863 631.727 8.18939 632.659 7.5909C633.598 6.98484 634.708 6.68181 635.989 6.68181C637.617 6.68181 638.939 7.20075 639.955 8.23863C640.977 9.26893 641.489 10.7311 641.489 12.625V24.3636H636.659V13.5795C636.659 12.6098 636.402 11.8826 635.886 11.3977C635.371 10.9129 634.727 10.6705 633.955 10.6705C633.076 10.6705 632.39 10.9508 631.898 11.5114C631.405 12.0644 631.159 12.7954 631.159 13.7045V24.3636H626.466V13.4773C626.466 12.6212 626.22 11.9394 625.727 11.4318C625.242 10.9242 624.602 10.6705 623.807 10.6705C623.269 10.6705 622.784 10.8068 622.352 11.0795C621.928 11.3447 621.591 11.7197 621.341 12.2045C621.091 12.6818 620.966 13.2424 620.966 13.8864V24.3636H616.125ZM645.403 24.3636V1.0909H650.244V9.8409H650.392C650.604 9.37121 650.911 8.89393 651.313 8.40909C651.722 7.91666 652.252 7.50757 652.903 7.18181C653.563 6.84848 654.381 6.68181 655.358 6.68181C656.631 6.68181 657.805 7.01515 658.881 7.68181C659.956 8.3409 660.816 9.33712 661.46 10.6705C662.104 11.9962 662.426 13.6591 662.426 15.6591C662.426 17.6061 662.112 19.25 661.483 20.5909C660.862 21.9242 660.013 22.9356 658.938 23.625C657.869 24.3068 656.672 24.6477 655.347 24.6477C654.407 24.6477 653.608 24.4924 652.949 24.1818C652.297 23.8712 651.763 23.4811 651.347 23.0114C650.93 22.5341 650.612 22.053 650.392 21.5682H650.176V24.3636H645.403ZM650.142 15.6364C650.142 16.6742 650.286 17.5795 650.574 18.3523C650.862 19.125 651.278 19.7273 651.824 20.1591C652.369 20.5833 653.032 20.7955 653.813 20.7955C654.6 20.7955 655.267 20.5795 655.813 20.1477C656.358 19.7083 656.771 19.1023 657.051 18.3295C657.339 17.5492 657.483 16.6515 657.483 15.6364C657.483 14.6288 657.343 13.7424 657.063 12.9773C656.782 12.2121 656.369 11.6136 655.824 11.1818C655.278 10.75 654.608 10.5341 653.813 10.5341C653.025 10.5341 652.358 10.7424 651.813 11.1591C651.275 11.5758 650.862 12.1667 650.574 12.9318C650.286 13.697 650.142 14.5985 650.142 15.6364ZM676.849 16.9318V6.90909H681.69V24.3636H677.043V21.1932H676.861C676.467 22.2159 675.812 23.0379 674.895 23.6591C673.986 24.2803 672.876 24.5909 671.565 24.5909C670.399 24.5909 669.372 24.3258 668.486 23.7955C667.599 23.2651 666.906 22.5114 666.406 21.5341C665.914 20.5568 665.664 19.3864 665.656 18.0227V6.90909H670.497V17.1591C670.505 18.1894 670.781 19.0038 671.327 19.6023C671.872 20.2008 672.603 20.5 673.52 20.5C674.103 20.5 674.649 20.3674 675.156 20.1023C675.664 19.8295 676.073 19.428 676.384 18.8977C676.702 18.3674 676.857 17.7121 676.849 16.9318ZM700.085 11.8864L695.653 12.1591C695.578 11.7803 695.415 11.4394 695.165 11.1364C694.915 10.8258 694.585 10.5795 694.176 10.3977C693.775 10.2083 693.294 10.1136 692.733 10.1136C691.983 10.1136 691.35 10.2727 690.835 10.5909C690.32 10.9015 690.063 11.3182 690.063 11.8409C690.063 12.2576 690.229 12.6098 690.563 12.8977C690.896 13.1856 691.468 13.4167 692.278 13.5909L695.438 14.2273C697.134 14.5758 698.4 15.1364 699.233 15.9091C700.066 16.6818 700.483 17.697 700.483 18.9545C700.483 20.0985 700.146 21.1023 699.472 21.9659C698.805 22.8295 697.888 23.5038 696.722 23.9886C695.563 24.4659 694.225 24.7045 692.71 24.7045C690.4 24.7045 688.559 24.2235 687.188 23.2614C685.824 22.2917 685.025 20.9735 684.79 19.3068L689.551 19.0568C689.695 19.7614 690.044 20.2992 690.597 20.6705C691.15 21.0341 691.858 21.2159 692.722 21.2159C693.57 21.2159 694.252 21.053 694.767 20.7273C695.29 20.3939 695.555 19.9659 695.563 19.4432C695.555 19.0038 695.369 18.6439 695.006 18.3636C694.642 18.0758 694.081 17.8561 693.324 17.7045L690.301 17.1023C688.597 16.7614 687.328 16.1705 686.494 15.3295C685.669 14.4886 685.256 13.4167 685.256 12.1136C685.256 10.9924 685.559 10.0265 686.165 9.2159C686.778 8.4053 687.638 7.7803 688.744 7.3409C689.858 6.90151 691.161 6.68181 692.653 6.68181C694.858 6.68181 696.593 7.14772 697.858 8.07954C699.131 9.01136 699.873 10.2803 700.085 11.8864ZM707.69 17.3864V17C707.698 15.6742 707.815 14.6174 708.043 13.8295C708.277 13.0417 708.618 12.4053 709.065 11.9205C709.512 11.4356 710.05 10.9962 710.679 10.6023C711.149 10.2992 711.569 9.98484 711.94 9.65909C712.312 9.33333 712.607 8.97348 712.827 8.57954C713.046 8.17803 713.156 7.73106 713.156 7.23863C713.156 6.7159 713.031 6.25757 712.781 5.86363C712.531 5.46969 712.194 5.16666 711.77 4.95454C711.353 4.74242 710.891 4.63636 710.384 4.63636C709.891 4.63636 709.425 4.74621 708.986 4.9659C708.546 5.17803 708.187 5.49621 707.906 5.92045C707.626 6.33712 707.474 6.85606 707.452 7.47727H702.815C702.853 5.96212 703.217 4.71212 703.906 3.72727C704.596 2.73484 705.509 1.99621 706.645 1.51136C707.781 1.01893 709.035 0.772722 710.406 0.772722C711.914 0.772722 713.247 1.02272 714.406 1.52272C715.565 2.01515 716.474 2.73106 717.134 3.67045C717.793 4.60984 718.122 5.74242 718.122 7.06818C718.122 7.95454 717.974 8.74242 717.679 9.43181C717.391 10.1136 716.986 10.7197 716.463 11.25C715.94 11.7727 715.323 12.2462 714.611 12.6705C714.012 13.0265 713.52 13.3977 713.134 13.7841C712.755 14.1705 712.471 14.6174 712.281 15.125C712.099 15.6326 712.005 16.2576 711.997 17V17.3864H707.69ZM709.94 24.6591C709.183 24.6591 708.535 24.3939 707.997 23.8636C707.467 23.3258 707.205 22.6818 707.213 21.9318C707.205 21.1894 707.467 20.553 707.997 20.0227C708.535 19.4924 709.183 19.2273 709.94 19.2273C710.66 19.2273 711.293 19.4924 711.838 20.0227C712.384 20.553 712.66 21.1894 712.668 21.9318C712.66 22.4318 712.527 22.8901 712.27 23.3068C712.02 23.7159 711.69 24.0455 711.281 24.2955C710.872 24.5379 710.425 24.6591 709.94 24.6591Z" fill="#003634"/>
</svg>
